<svg viewBox="0 0 330 200" xmlns="http://www.w3.org/2000/svg"><g><g><g><g><g><line x1="40" y1="177" x2="35" y2="177" style="visibility: inherit;" fill="rgb(0, 0, 0)" stroke="rgb(204, 204, 204)" stroke-width="1px"></line><line x1="40" y1="154.875" x2="35" y2="154.875" style="visibility: inherit;" fill="rgb(0, 0, 0)" stroke="rgb(204, 204, 204)" stroke-width="1px"></line><line x1="40" y1="132.75" x2="35" y2="132.75" style="visibility: inherit;" fill="rgb(0, 0, 0)" stroke="rgb(204, 204, 204)" stroke-width="1px"></line><line x1="40" y1="110.625" x2="35" y2="110.625" style="visibility: inherit;" fill="rgb(0, 0, 0)" stroke="rgb(204, 204, 204)" stroke-width="1px"></line><line x1="40" y1="88.5" x2="35" y2="88.5" style="visibility: inherit;" fill="rgb(0, 0, 0)" stroke="rgb(204, 204, 204)" stroke-width="1px"></line><line x1="40" y1="66.375" x2="35" y2="66.375" style="visibility: inherit;" fill="rgb(0, 0, 0)" stroke="rgb(204, 204, 204)" stroke-width="1px"></line><line x1="40" y1="44.25" x2="35" y2="44.25" style="visibility: inherit;" fill="rgb(0, 0, 0)" stroke="rgb(204, 204, 204)" stroke-width="1px"></line><line x1="40" y1="22.125" x2="35" y2="22.125" style="visibility: inherit;" fill="rgb(0, 0, 0)" stroke="rgb(204, 204, 204)" stroke-width="1px"></line><line x1="40" y1="0" x2="35" y2="0" style="visibility: inherit;" fill="rgb(0, 0, 0)" stroke="rgb(204, 204, 204)" stroke-width="1px"></line></g><g transform="translate(30, 0)"><text x="0" y="177" dx="0em" dy="0.3em" style="text-anchor: end; visibility: hidden; font-family: Roboto, sans-serif; font-size: 12px; font-weight: 200;" fill="rgb(33, 33, 33)" stroke="none" stroke-width="1px">-20</text><text x="0" y="154.875" dx="0em" dy="0.3em" style="text-anchor: end; visibility: inherit; font-family: Roboto, sans-serif; font-size: 12px; font-weight: 200;" fill="rgb(33, 33, 33)" stroke="none" stroke-width="1px">-15</text><text x="0" y="132.75" dx="0em" dy="0.3em" style="text-anchor: end; visibility: hidden; font-family: Roboto, sans-serif; font-size: 12px; font-weight: 200;" fill="rgb(33, 33, 33)" stroke="none" stroke-width="1px">-10</text><text x="0" y="110.625" dx="0em" dy="0.3em" style="text-anchor: end; visibility: inherit; font-family: Roboto, sans-serif; font-size: 12px; font-weight: 200;" fill="rgb(33, 33, 33)" stroke="none" stroke-width="1px">-5</text><text x="0" y="88.5" dx="0em" dy="0.3em" style="text-anchor: end; visibility: hidden; font-family: Roboto, sans-serif; font-size: 12px; font-weight: 200;" fill="rgb(33, 33, 33)" stroke="none" stroke-width="1px">0</text><text x="0" y="66.375" dx="0em" dy="0.3em" style="text-anchor: end; visibility: inherit; font-family: Roboto, sans-serif; font-size: 12px; font-weight: 200;" fill="rgb(33, 33, 33)" stroke="none" stroke-width="1px">5</text><text x="0" y="44.25" dx="0em" dy="0.3em" style="text-anchor: end; visibility: hidden; font-family: Roboto, sans-serif; font-size: 12px; font-weight: 200;" fill="rgb(33, 33, 33)" stroke="none" stroke-width="1px">10</text><text x="0" y="22.125" dx="0em" dy="0.3em" style="text-anchor: end; visibility: inherit; font-family: Roboto, sans-serif; font-size: 12px; font-weight: 200;" fill="rgb(33, 33, 33)" stroke="none" stroke-width="1px">15</text><text x="0" y="0" dx="0em" dy="0.3em" style="text-anchor: end; visibility: hidden; font-family: Roboto, sans-serif; font-size: 12px; font-weight: 200;" fill="rgb(33, 33, 33)" stroke="none" stroke-width="1px">20</text></g><line x1="40" y1="0" x2="40" y2="177" fill="rgb(0, 0, 0)" stroke="rgb(204, 204, 204)" stroke-width="1px"></line></g></g><g transform="translate(40, 0)" clip-path="url(#clip_0)"><clipPath id="clip_0"><rect width="290" height="177"></rect></clipPath><g><g><g><line x1="0" y1="0" x2="0" y2="177" fill="rgb(0, 0, 0)" stroke="rgb(66, 66, 66)" stroke-width="1px" opacity="0.25"></line><line x1="24.166666666666664" y1="0" x2="24.166666666666664" y2="177" fill="rgb(0, 0, 0)" stroke="rgb(66, 66, 66)" stroke-width="1px" opacity="0.25"></line><line x1="48.33333333333333" y1="0" x2="48.33333333333333" y2="177" fill="rgb(0, 0, 0)" stroke="rgb(66, 66, 66)" stroke-width="1px" opacity="0.25"></line><line x1="72.5" y1="0" x2="72.5" y2="177" fill="rgb(0, 0, 0)" stroke="rgb(66, 66, 66)" stroke-width="1px" opacity="0.25"></line><line x1="96.66666666666666" y1="0" x2="96.66666666666666" y2="177" fill="rgb(0, 0, 0)" stroke="rgb(66, 66, 66)" stroke-width="1px" opacity="0.25"></line><line x1="120.83333333333334" y1="0" x2="120.83333333333334" y2="177" fill="rgb(0, 0, 0)" stroke="rgb(66, 66, 66)" stroke-width="1px" opacity="0.25"></line><line x1="145" y1="0" x2="145" y2="177" fill="rgb(0, 0, 0)" stroke="rgb(66, 66, 66)" stroke-width="1px" opacity="0.25"></line><line x1="169.16666666666669" y1="0" x2="169.16666666666669" y2="177" fill="rgb(0, 0, 0)" stroke="rgb(66, 66, 66)" stroke-width="1px" opacity="0.25"></line><line x1="193.33333333333331" y1="0" x2="193.33333333333331" y2="177" fill="rgb(0, 0, 0)" stroke="rgb(66, 66, 66)" stroke-width="1px" opacity="0.25"></line><line x1="217.5" y1="0" x2="217.5" y2="177" fill="rgb(0, 0, 0)" stroke="rgb(66, 66, 66)" stroke-width="1px" opacity="0.25"></line><line x1="241.66666666666669" y1="0" x2="241.66666666666669" y2="177" fill="rgb(0, 0, 0)" stroke="rgb(66, 66, 66)" stroke-width="1px" opacity="0.25"></line><line x1="265.8333333333333" y1="0" x2="265.8333333333333" y2="177" fill="rgb(0, 0, 0)" stroke="rgb(66, 66, 66)" stroke-width="1px" opacity="0.25"></line><line x1="290" y1="0" x2="290" y2="177" fill="rgb(0, 0, 0)" stroke="rgb(66, 66, 66)" stroke-width="1px" opacity="0.25"></line></g><g><line x1="0" y1="177" x2="290" y2="177" fill="rgb(0, 0, 0)" stroke="rgb(66, 66, 66)" stroke-width="1px" opacity="0.25"></line><line x1="0" y1="154.875" x2="290" y2="154.875" fill="rgb(0, 0, 0)" stroke="rgb(66, 66, 66)" stroke-width="1px" opacity="0.25"></line><line x1="0" y1="132.75" x2="290" y2="132.75" fill="rgb(0, 0, 0)" stroke="rgb(66, 66, 66)" stroke-width="1px" opacity="0.25"></line><line x1="0" y1="110.625" x2="290" y2="110.625" fill="rgb(0, 0, 0)" stroke="rgb(66, 66, 66)" stroke-width="1px" opacity="0.25"></line><line x1="0" y1="88.5" x2="290" y2="88.5" fill="rgb(0, 0, 0)" stroke="rgb(66, 66, 66)" stroke-width="1px" opacity="0.25"></line><line x1="0" y1="66.375" x2="290" y2="66.375" fill="rgb(0, 0, 0)" stroke="rgb(66, 66, 66)" stroke-width="1px" opacity="0.25"></line><line x1="0" y1="44.25" x2="290" y2="44.25" fill="rgb(0, 0, 0)" stroke="rgb(66, 66, 66)" stroke-width="1px" opacity="0.25"></line><line x1="0" y1="22.125" x2="290" y2="22.125" fill="rgb(0, 0, 0)" stroke="rgb(66, 66, 66)" stroke-width="1px" opacity="0.25"></line><line x1="0" y1="0" x2="290" y2="0" fill="rgb(0, 0, 0)" stroke="rgb(66, 66, 66)" stroke-width="1px" opacity="0.25"></line></g></g></g><g><g><line x1="0" y1="88.5" x2="290" y2="88.5" fill="rgb(0, 0, 0)" stroke="rgb(153, 153, 153)" stroke-width="1.5px"></line></g></g><g><g><line x1="24.166666666666664" y1="0" x2="24.166666666666664" y2="177" fill="rgb(0, 0, 0)" stroke="rgb(153, 153, 153)" stroke-width="1.5px"></line></g></g><g><g><g><g><g><path stroke="rgb(255, 112, 67)" stroke-width="2px" d="M24.166666666666664,177L24.408333333333335,174.234375L24.650000000000002,173.3877551020408L24.891666666666666,177.08134191176472L25.133333333333333,178.96530187369882L25.375,176.28408633190116L25.616666666666667,178.39967473465194L26.34166666666667,179.07642177323908L26.583333333333332,176.46638392346398L26.825,178.45415730406125L27.55,179.72189404845884L27.791666666666668,176.86232971454797L28.03333333333333,178.68770680409233L29.724999999999998,177.75172887417068L29.966666666666665,175.68103143744995L30.208333333333336,177.978622781741L32.141666666666666,178.97362100532965L32.38333333333333,176.41417255919905L32.625,176.64850353793642L32.86666666666667,175.01910211267804L33.108333333333334,172.27146125740433L33.35,163.542876734996L33.59166666666667,165.38572604346106L33.833333333333336,171.80143563122235L34.074999999999996,170.34086137803055L34.31666666666666,173.00451682758742L34.55833333333334,171.06271009621605L34.8,169.89762605760853L35.041666666666664,169.19857563452152L35.28333333333334,172.3191453808297L35.525,170.65148722846035L35.766666666666666,166.11089233701503L36.00833333333333,172.23653540225854L36.25,172.37192124135578L36.49166666666667,175.993152744824L36.733333333333334,174.62589164689203L36.975,170.26553498813064L37.21666666666666,169.41932099287786L37.458333333333336,161.83159259572386L37.7,164.35895555743488L37.94166666666666,164.1053733344609L38.18333333333333,160.41322400067625L38.425000000000004,158.19793440040561L38.666666666666664,158.6387606402434L38.90833333333333,164.21325638414612L39.150000000000006,165.7879538304877L39.391666666666666,161.42277229829259L39.63333333333333,164.11366337897556L39.875,162.18819802738534L40.11666666666667,164.57291881643118L40.358333333333334,169.54375128985873L40.6,168.9862507739152L40.84166666666667,163.34175046434913L41.083333333333336,163.49505027860948L41.324999999999996,163.5870301671657L41.56666666666667,161.87221810029942L41.80833333333333,155.53333086017963L42.05,160.5799985161078L42.29166666666667,158.2979991096647L42.53333333333333,155.15879946579878L42.775,160.35527967947928L43.01666666666667,158.16316780768756L43.25833333333333,155.07790068461253L43.5,154.99674041076753L43.74166666666667,156.71804424646052L43.983333333333334,155.9808265478763L44.225,148.45849592872577L44.46666666666666,145.71509755723548L44.708333333333336,152.91905853434127L44.95,151.93143512060476L45.19166666666666,161.95886107236285L45.43333333333334,150.2753166434177L45.675,155.65518998605063L45.916666666666664,155.3431139916304L46.15833333333334,149.84586839497823L46.4,143.00752103698696L46.641666666666666,145.98451262219214L46.88333333333333,138.9207075733153L47.125,147.07242454398917L47.36666666666667,150.1934547263935L47.60833333333333,150.2960728358361L47.85,146.81764370150165L48.09166666666667,151.810586220901L48.33333333333333,153.0363517325406L48.575,144.92181103952436L48.81666666666667,145.36308662371462L49.05833333333333,149.16785197422877L49.300000000000004,144.37071118453724L49.541666666666664,145.03242671072238L49.78333333333333,147.1994560264334L50.025,141.41967361586006L50.266666666666666,145.03180416951602L50.50833333333333,143.6590825017096L50.75,149.9154495010258L50.99166666666667,144.81926970061548L51.233333333333334,141.76156182036928L51.474999999999994,145.23693709222155L51.71666666666667,127.85216225533294L51.958333333333336,122.73129735319976L52.199999999999996,123.19877841191985L52.44166666666667,125.2492670471519L52.68333333333334,119.39956022829114L52.925,99.95973613697468L53.166666666666664,116.61584168218482L53.40833333333334,128.3795050093109L53.65,140.74770300558654L53.891666666666666,134.00862180335193L54.13333333333333,131.73517308201116L54.375,126.8311038492067L54.61666666666667,118.578662309524L54.858333333333334,129.5571973857144L55.1,130.83431843142864L55.34166666666666,140.45059105885719L55.583333333333336,139.1403546353143L55.825,148.97421278118858L56.06666666666666,140.71452766871315L56.30833333333333,137.5287166012279L56.550000000000004,128.53722996073674L56.791666666666664,128.45233797644204L57.03333333333333,131.94140278586522L57.275000000000006,119.87484167151914L57.516666666666666,132.1049050029115L57.75833333333333,127.0529430017469L58,109.86176580104812L58.24166666666667,115.47705948062887L58.483333333333334,109.99623568837734L58.725,112.0177414130264L58.96666666666667,107.92064484781585L59.208333333333336,109.0023869086895L59.449999999999996,106.11143214521371L59.69166666666667,109.68685928712823L59.93333333333333,104.75211557227695L60.175,114.18126934336617L60.41666666666667,121.6087616060197L60.65833333333333,111.90525696361182L60.9,107.85315417816709L61.14166666666667,116.04189250690025L61.38333333333333,128.03513550414016L61.625,133.4610813024841L61.86666666666667,113.70664878149047L62.108333333333334,105.39398926889426L62.35,105.71639356133656L62.59166666666666,118.29983613680194L62.833333333333336,122.30990168208115L63.075,130.0259410092487L63.31666666666666,127.57556460554922L63.55833333333334,127.87533876332952L63.8,101.50520325799772L64.04166666666667,94.53312195479863L64.28333333333333,85.03987317287917L64.525,98.8139239037275L64.76666666666667,92.9183543422365L65.00833333333333,96.4610126053419L65.25,109.20660756320514L65.49166666666666,113.31396453792308L65.73333333333333,96.30837872275386L65.97500000000001,73.71502723365231L66.21666666666667,70.77901634019139L66.45833333333333,60.16740980411482L66.7,69.7304458824689L66.94166666666666,54.228267529481336L67.18333333333334,55.54696051768881L67.425,59.87817631061329L67.66666666666667,66.01690578636796L67.90833333333333,60.850143471820786L68.14999999999999,77.22008608309247L68.39166666666667,90.58205164985549L68.63333333333333,64.96923098991327L68.875,60.22153859394797L69.11666666666667,46.752923156368794L69.35833333333333,54.60175389382127L69.6,52.231052336292755L69.84166666666667,70.27863140177566L70.08333333333333,63.407178841065374L70.325,62.824307304639234L70.56666666666668,50.08458438278353L70.80833333333334,47.75075062967012L71.05,53.43045037780207L71.29166666666666,55.06827022668125L71.53333333333333,54.28096213600874L71.775,60.88857728160525L72.01666666666667,61.313146368963146L72.25833333333334,52.717887821377886L72.5,63.49073269282673L72.74166666666667,45.174439615696045L72.98333333333333,41.26466376941763L73.225,47.768798261650566L73.46666666666667,55.21127895699035L73.70833333333333,49.056767374194195L73.95,57.75406042451652L74.19166666666668,52.35243625470991L74.43333333333332,70.35146175282595L74.675,61.68087705169557L74.91666666666667,49.39852623101735L75.15833333333333,29.63911573861038L75.4,28.403469443166248L75.64166666666667,41.82208166589975L75.88333333333333,30.403248999539862L76.125,30.631949399723915L76.36666666666666,23.689169639834365L76.60833333333333,40.76350178390061L76.85000000000001,45.69810107034036L77.09166666666665,39.80886064220422L77.33333333333333,36.27531638532254L77.575,50.085189831193524L77.81666666666666,33.591113898716124L78.05833333333334,32.54466833922967L78.30000000000001,40.7668010035378L78.54166666666666,49.24008060212268L78.78333333333333,68.48404836127362L79.025,67.64042901676417L79.26666666666667,44.124257410058505L79.50833333333334,47.714554446035095L79.75,41.01873266762107L79.99166666666666,38.77123960057262L80.23333333333333,40.96274376034357L80.47500000000001,40.50764625620615L80.71666666666667,29.614587753723672L80.95833333333333,31.928752652234223L81.2,20.92725159134053L81.44166666666666,23.176350954804306L81.68333333333334,33.37581057288257L81.925,30.645486343729523L82.16666666666667,32.54729180623772L82.40833333333333,33.68837508374262L82.64999999999999,29.063025050245578L82.89166666666667,29.827815030147345L83.13333333333334,21.436689018088433L83.375,28.792013410853045L83.61666666666666,31.435208046511843L83.85833333333333,43.641124827907106L84.1,42.114674896744255L84.34166666666667,32.34880493804656L84.58333333333334,31.79928296282793L84.82499999999999,26.15956977769676L85.06666666666666,31.625741866618057L85.30833333333334,34.90544511997083L85.55,42.1832670719825L85.79166666666667,44.7799602431895L86.03333333333335,41.027976145913684L86.27499999999999,44.08678568754822L86.51666666666667,45.92207141252893L86.75833333333334,48.79324284751734L87,46.975945708510416L87.24166666666667,38.80556742510625L87.48333333333333,44.52334045506375L87.725,51.494004273038264L87.96666666666667,43.28640256382296L88.20833333333333,34.82184153829377L88.45,38.59310492297627L88.69166666666668,35.54586295378577L88.93333333333332,40.79751777227146L89.175,47.48851066336289L89.41666666666667,46.193106398017726L89.65833333333333,47.18586383881064L89.9,38.931518303286374L90.14166666666667,60.52891098197183L90.38333333333333,64.6373465891831L90.625,49.40240795350986L90.86666666666667,50.88144477210592L91.10833333333333,57.07886686326355L91.35,60.797320117958144L91.59166666666667,40.01839207077488L91.83333333333333,32.86103524246492L92.075,33.87662114547896L92.31666666666668,43.33597268728738L92.55833333333332,49.01158361237242L92.8,31.176950167423453L93.04166666666667,31.09617010045408L93.28333333333333,43.43770206027246L93.525,36.68262123616348L93.76666666666667,34.39957274169807L94.00833333333333,33.029743645018854L94.25,53.4478461870113L94.49166666666666,46.228707712206784L94.73333333333333,40.12722462732406L94.97500000000001,24.076334776394443L95.21666666666665,39.22580086583667L95.45833333333333,37.695480519502006L95.7,29.69728831170121L95.94166666666666,24.89837298702072L96.18333333333334,41.48902379221243L96.42500000000001,40.823414275327465L96.66666666666666,33.34404856519647L96.90833333333333,41.2464291391179L97.15,42.44785748347074L97.39166666666667,41.39871449008245L97.63333333333334,46.07922869404947L97.875,43.57753721642969L98.11666666666666,45.6165223298578L98.35833333333333,46.83991339791467L98.60000000000001,47.57394803874882L98.84166666666667,40.93436882324927L99.08333333333333,31.640621293949575L99.325,17.214372776369757L99.56666666666666,43.958623665821854L99.80833333333334,56.465174199493106L100.05,56.889104519695856L100.29166666666667,57.143462711817506L100.53333333333333,46.67607762709051L100.77499999999999,33.315646576254316L101.01666666666667,28.839387945752584L101.25833333333334,33.23363276745155L101.5,35.87017966047094L101.74166666666666,46.30210779628256L101.98333333333333,45.48126467776953L102.225,32.59875880666173L102.46666666666667,30.179255283997026L102.70833333333334,28.727553170398213L102.94999999999999,38.47653190223893L103.19166666666666,35.475919141343354L103.43333333333334,44.295551484806005L103.675,51.3573308908836L103.91666666666667,44.97439853453017L104.15833333333335,26.984639120718093L104.39999999999999,28.58078347243085L104.64166666666667,22.458470083458522L104.88333333333334,29.405082050075123L105.125,24.72304923004506L105.36666666666667,20.14382953802706L105.60833333333333,26.246297722816216L105.85,21.057778633689736L106.09166666666667,28.564667180213846L106.33333333333333,18.90880030812831L106.575,16.65528018487697L106.81666666666668,22.383168110926192L107.05833333333332,16.96990086655573L107.3,31.42194051993345L107.54166666666667,33.01316431196004L107.78333333333333,25.117898587176025L108.025,27.46073915230562L108.26666666666667,43.026443491383375L108.50833333333333,50.595866094830015L108.75,58.67751965689801L108.99166666666667,63.5265117941388L109.23333333333333,55.815907076483285L109.475,47.64954424588997L109.71666666666667,35.669726547533976L109.95833333333333,30.251835928520382L110.2,27.00110155711226L110.44166666666668,25.050660934267334L110.68333333333332,30.960396560560405L110.925,29.196237936336228L111.16666666666667,29.907742761801753L111.40833333333333,26.79464565708106L111.65,23.15678739424861L111.89166666666667,38.67407243654916L112.13333333333333,30.28444346192953L112.375,28.79066607715772L112.61666666666666,27.894399646294634L112.85833333333333,39.74663978777677L113.10000000000001,30.92798387266605L113.34166666666665,29.176790323599636L113.58333333333333,33.43607419415976L113.825,25.37164451649587L114.06666666666666,32.922986709897515L114.30833333333334,25.063792025938522L114.55000000000001,38.0482752155631L114.79166666666666,36.988965129337856L115.03333333333333,46.9733790776027L115.275,37.03402744656163L115.51666666666667,25.760416467936984L115.75833333333334,18.996249880762203L116,16.70774992845733L116.24166666666666,22.41464995707439L116.48333333333333,38.22878997424465L116.72500000000001,44.17727398454678L116.96666666666667,37.12636439072808L117.20833333333333,43.51581863443684L117.45,36.72949118066211L117.69166666666666,34.42769470839728L117.93333333333334,38.35661682503837L118.175,42.48397009502301L118.41666666666667,25.490382057013797L118.65833333333333,18.834229234208298L118.89999999999999,21.920537540524986L119.14166666666667,16.692322524314985L119.38333333333334,24.175393514589004L119.625,32.205236108753404L119.86666666666666,29.943141665252032L120.10833333333333,51.595884999151224L120.35,38.037530999490734L120.59166666666667,29.90251859969443L120.83333333333334,23.251511159816665L121.07499999999999,21.030906695890003L121.31666666666666,37.39854401753401L121.55833333333334,47.21912641052039L121.8,37.18147584631225L122.04166666666667,41.77888550778736L122.28333333333335,26.83733130467241L122.52499999999999,35.572398782803454L122.76666666666667,46.12343926968206L123.00833333333334,43.60406356180924L123.25,40.322438137085534L123.49166666666667,34.813462882251315L123.73333333333333,29.73807772935078L123.975,30.232846637610475L124.21666666666667,48.229707982566275L124.45833333333333,50.17782478953976L124.7,46.03669487372387L124.94166666666668,29.392016924234312L125.18333333333332,31.795210154540587L125.425,42.08712609272437L125.66666666666667,30.562275655634615L125.90833333333333,30.727365393380758L126.15,25.516419236028447L126.39166666666667,20.619851541617074L126.63333333333333,28.30191092497025L126.875,29.371146554982147L127.11666666666667,45.94268793298928L127.35833333333333,47.03561275979358L127.6,54.77136765587614L127.84166666666667,43.48282059352569L128.08333333333334,49.09969235611542L128.325,38.30981541366924L128.56666666666666,40.68588924820156L128.80833333333334,38.57153354892091L129.05,40.84292012935256L129.29166666666669,38.66575207761154L129.53333333333333,40.89945124656693L129.775,42.239670747940146L130.01666666666665,44.81380244876409L130.25833333333333,41.048281469258455L130.5,44.09896888155508L130.74166666666665,37.079381328933046L130.98333333333332,36.40762879735981L131.225,37.77457727841589L131.46666666666667,42.13474636704953L131.70833333333334,41.21084782022972L131.95000000000002,51.276508692137824L132.19166666666666,41.3859052152827L132.43333333333334,40.76154312916962L132.675,38.616925877501764L132.91666666666666,40.87015552650105L133.15833333333333,49.30209331590063L133.4,56.131255989540385L133.64166666666665,47.83875359372423L133.88333333333333,35.78325215623453L134.125,40.93995129374073L134.36666666666667,36.95397077624444L134.60833333333335,38.10238246574665L134.85,31.711429479448007L135.09166666666667,20.796857687668805L135.33333333333334,26.63811461260126L135.57500000000002,28.372868767560778L135.81666666666666,32.953721260536454L136.05833333333334,28.62223275632187L136.29999999999998,33.103339653793135L136.54166666666666,37.56200379227587L136.78333333333333,34.92720227536552L137.025,31.57632136521931L137.26666666666665,27.795792819131588L137.50833333333333,25.527475691478944L137.75,25.936485414887354L137.99166666666667,59.81189124893242L138.23333333333335,42.967134749359474L138.475,43.48028084961568L138.71666666666667,40.248168509769414L138.95833333333334,41.84890110586165L139.2,37.49934066351698L139.44166666666666,36.65960439811018L139.68333333333334,25.535762638866114L139.92499999999998,18.86145758331965L140.16666666666666,27.246874549991787L140.40833333333333,26.968124729995065L140.65,25.030874837997036L140.89166666666668,18.558524902798226L141.13333333333335,21.755114941678944L141.375,28.983068965007366L141.61666666666667,26.239841379004414L141.85833333333335,22.82390482740266L142.1,26.084342896441594L142.34166666666667,35.120605737864956L142.58333333333331,35.23236344271899L142.825,38.8394180656314L143.06666666666666,37.46365083937882L143.30833333333334,34.868190503627304L143.55,31.54091430217638L143.79166666666666,56.094548581305816L144.03333333333333,44.2767291487835L144.275,38.9560374892701L144.51666666666668,44.61362249356207L144.75833333333333,33.84817349613726L145,50.39890409768235L145.24166666666667,39.08934245860941L145.48333333333335,39.38360547516566L145.725,48.41016328509939L145.96666666666667,46.74609797105965L146.20833333333334,35.12765878263576L146.45,40.54659526958148L146.69166666666666,29.637957161748876L146.93333333333334,23.092774297049303L147.17499999999998,26.2456645782296L147.41666666666666,38.75739874693776L147.65833333333333,33.874439248162645L147.9,18.554663548897583L148.14166666666668,27.062798129338557L148.38333333333335,21.547678877603126L148.625,16.468607326561873L148.86666666666665,16.96116439593712L149.10833333333332,19.026698637562305L149.35,23.80601918253737L149.59166666666667,31.98361150952241L149.83333333333334,24.50016690571346L150.075,30.630100143428052L150.31666666666666,27.22806008605684L150.55833333333334,26.956836051634102L150.8,33.87410163098046L151.04166666666669,29.17446097858829L151.28333333333333,40.514676587152955L151.52499999999998,33.1588059522918L151.76666666666665,21.66528357137507L152.00833333333333,30.69917014282504L152.25,23.72950208569503L152.49166666666667,19.547701251417L152.73333333333332,24.118620750850223L152.975,21.551172450510155L153.21666666666667,23.55070347030606L153.45833333333334,40.68042208218364L153.70000000000002,45.64825324931018L153.9416666666667,30.928951949586118L154.1833333333333,30.947371169751655L154.42499999999998,27.418422701851L154.66666666666666,27.071053621110607L154.90833333333333,32.17263217266638L155.15,31.693579303599822L155.39166666666668,27.866147582159886L155.63333333333333,22.029688549295933L155.875,23.837813129577572L156.11666666666667,19.612687877746517L156.35833333333335,24.157612726647923L156.60000000000002,19.804567635988754L156.84166666666667,24.27274058159326L157.08333333333331,34.033644348955946L157.325,32.810186609373574L157.56666666666666,46.23611196562415L157.80833333333334,54.29166717937449L158.05,46.73500030762468L158.29166666666666,49.28100018457479L158.53333333333333,47.26860011074488L158.775,42.52116006644691L159.01666666666668,32.59269603986815L159.25833333333335,24.865617623920905L159.5,30.849370574352534L159.74166666666665,27.359622344611548L159.98333333333332,25.265773406766897L160.225,24.00946404406017L160.46666666666667,30.335678426436075L160.70833333333334,34.13140705586166L160.95000000000002,31.09884423351699L161.19166666666666,29.279306540110206L161.43333333333334,35.267583924066116L161.675,28.240550354439662L161.91666666666666,25.79433021266382L162.15833333333333,20.786598127598275L162.4,26.63195887655898L162.64166666666665,31.909175325935376L162.88333333333333,33.305505195561224L163.125,30.603303117336758L163.36666666666667,37.83198187040205L163.60833333333335,40.399189122241225L163.85,49.01951347334474L164.09166666666667,45.34170808400685L164.33333333333334,41.365024850404104L164.575,37.209014910242466L164.81666666666666,36.48540894614547L165.05833333333334,30.7412453676873L165.29999999999998,27.294747220612393L165.54166666666666,28.766848332367434L165.78333333333333,19.030108999420452L166.025,25.578065399652278L166.26666666666668,15.346839239791368L166.50833333333335,9.208103543874817L166.75,19.684862126324905L166.99166666666665,31.28091727579495L167.23333333333332,27.618550365476978L167.475,28.961130219286176L167.71666666666667,36.84667813157169L167.95833333333334,53.96800687894303L168.2,35.920804127365805L168.44166666666666,39.25248247641949L168.68333333333334,44.79148948585169L168.925,32.18489369151099L169.16666666666669,31.700936214906616L169.40833333333333,50.88056172894395L169.64999999999998,42.91833703736639L169.89166666666665,54.071002222419835L170.13333333333333,37.75260133345188L170.375,31.50156080007113L170.61666666666667,41.91093648004267L170.85833333333332,41.0765618880256L171.1,29.95593713281536L171.34166666666667,17.973562279689222L171.58333333333334,24.944137367813507L171.82500000000002,22.046482420688136L172.0666666666667,22.07788945241286L172.3083333333333,32.71673367144772L172.54999999999998,24.94004020286864L172.79166666666666,22.04402412172119L173.03333333333333,30.926414473032718L173.275,18.555848683819622L173.51666666666668,12.9035092102918L173.75833333333333,13.052105526175076L174,21.991263315705037L174.24166666666667,14.96475798942303L174.48333333333335,24.90885479365379L174.72500000000002,29.105312876192276L174.96666666666667,19.233187725715354L175.20833333333331,20.389912635429216L175.45,28.16394758125755L175.69166666666666,22.20836854875451L175.93333333333334,29.2550211292527L176.175,26.403012677551644L176.41666666666666,22.921807606530997L176.65833333333333,22.603084563918603L176.9,25.951850738351176L177.14166666666668,26.1911104430107L177.38333333333335,26.334666265806405L177.625,44.12079975948386L177.86666666666665,42.4024798556903L178.10833333333332,43.14148791341419L178.35,45.354892748048506L178.59166666666667,36.062935648829104L178.83333333333334,41.10776138929747L179.07500000000002,40.594656833578476L179.31666666666666,49.13679410014709L179.55833333333334,43.64207646008825L179.8,40.345245876052935L180.04166666666666,34.827147525631744L180.28333333333333,29.746288515379053L180.525,26.69777310922743L180.76666666666665,37.258663865536455L181.00833333333333,40.05519831932188L181.25,45.273118991593115L181.49166666666667,73.18387139495589L181.73333333333335,45.680322836973524L181.975,45.10819370218412L182.21666666666667,44.76491622131046L182.45833333333334,35.70894973278628L182.7,24.965369839671766L182.94166666666666,32.67922190380307L183.18333333333334,37.30753314228185L183.42499999999998,36.544519885369105L183.66666666666666,30.77671193122146L183.90833333333333,27.316027158732894L184.15,21.699616295239743L184.39166666666668,30.71976977714386L184.63333333333335,25.511861866286303L184.875,31.237117119771792L185.11666666666665,41.752270271863075L185.35833333333332,40.981362163117836L185.6,40.51881729787071L185.84166666666667,34.93129037872244L186.08333333333334,33.34877422723345L186.325,27.08926453634006L186.56666666666666,44.573558721804055L186.80833333333334,39.134135233082425L187.05,34.10048113984945L187.29166666666669,31.080288683909664L187.53333333333333,32.80817321034581L187.77499999999998,37.38490392620749L188.01666666666665,27.740942355724478L188.25833333333333,23.724565413434686L188.5,23.08473924806083L188.74166666666667,31.550843548836486L188.98333333333332,50.7905061293019L189.225,48.17430367758113L189.46666666666667,37.75458220654869L189.70833333333334,35.04274932392922L189.95000000000002,49.34564959435753L190.1916666666667,43.76738975661451L190.4333333333333,36.88043385396871L190.67499999999998,23.89826031238122L190.91666666666666,28.49895618742873L191.15833333333333,31.259373712457243L191.4,39.99562422747434L191.64166666666668,31.077374536484605L191.88333333333333,32.80642472189077L192.125,30.30385483313446L192.36666666666667,23.49231289988069L192.60833333333335,26.485387739928402L192.85000000000002,26.511232643957058L193.09166666666667,31.83673958637423L193.33333333333331,31.49204375182452L193.575,33.05522625109469L193.81666666666666,23.37313575065682L194.05833333333334,26.413881450394083L194.3,22.92832887023646L194.54166666666666,17.296997322141856L194.78333333333333,10.37819839328515L195.025,27.466919035971085L195.26666666666668,30.640151421582623L195.50833333333335,23.69409085294957L195.75,17.75645451176976L195.99166666666665,21.273872707061855L196.23333333333332,23.38432362423713L196.475,21.11059417454229L196.71666666666667,23.286356504725347L196.95833333333334,51.14181390283523L197.20000000000002,34.22508834170115L197.44166666666666,40.005053005020685L197.68333333333334,29.31303180301243L197.925,31.747819081807446L198.16666666666666,27.89869144908447L198.40833333333333,41.51921486945068L198.65,30.22152892167042L198.89166666666665,23.442917353002237L199.13333333333333,24.68575041180133L199.375,34.28145024708082L199.61666666666667,31.18887014824849L199.85833333333335,27.563322088949093L200.1,30.69799325336943L200.34166666666667,30.808795952021672L200.58333333333334,23.795277571213013L200.825,26.667166542727784L201.06666666666666,26.62029992563665L201.30833333333334,31.90217995538202L201.54999999999998,52.77130797322921L201.79166666666666,31.662784783937518L202.03333333333333,40.23767087036251L202.275,29.4526025222175L202.51666666666668,42.4515615133305L202.75833333333335,30.780936907998306L203,27.31856214479897L203.24166666666665,35.8611372868794L203.48333333333332,37.44668237212765L203.725,43.708009423276586L203.96666666666667,40.38480565396594L204.20833333333334,29.54088339237955L204.45,37.19453003542774L204.69166666666666,29.396718021256635L204.93333333333334,33.56803081275398L205.175,25.4508184876524L205.41666666666669,27.66049109259141L205.65833333333333,36.06629465555487L205.89999999999998,32.259776793332925L206.14166666666665,38.82586607599976L206.38333333333333,39.225519645599846L206.625,27.075311787359908L206.86666666666667,28.63518707241594L207.10833333333332,33.111112243449554L207.35,35.79666734606974L207.59166666666667,28.55800040764186L207.83333333333334,29.524800244585112L208.07500000000002,26.56488014675106L208.3166666666667,24.788928088050632L208.5583333333333,39.65335685283039L208.79999999999998,34.41201411169823L209.04166666666666,31.26720846701896L209.28333333333333,29.38032508021138L209.525,28.248195048126806L209.76666666666668,32.87891702887611L210.00833333333333,33.88735021732565L210.25,27.412410130395394L210.49166666666667,30.607446078237256L210.73333333333335,34.29446764694233L210.97500000000002,34.73668058816541L211.21666666666667,26.152008352899237L211.45833333333331,33.391205011739544L211.7,23.57472300704372L211.94166666666666,26.534833804226245L212.18333333333334,42.47090028253574L212.425,41.41254016952144L212.66666666666666,46.08752410171286L212.90833333333333,32.96251446102774L213.15,39.24750867661663L213.39166666666668,34.16850520597L213.63333333333335,31.121103123581985L213.875,23.98266187414921L214.11666666666665,25.009597124489524L214.35833333333332,23.855758274693713L214.6,33.78345496481621L214.84166666666667,32.660072978889744L215.08333333333334,44.37604378733384L215.32500000000002,42.5556262724003L215.56666666666666,27.303375763440187L215.80833333333334,28.772025458064107L216.05,27.883215274838456L216.29166666666666,20.26992916490309L216.53333333333333,17.47195749894184L216.775,14.02317449936509L217.01666666666665,20.80390469961904L217.25833333333333,19.562342819771423L217.5,22.357405691862887L217.74166666666667,22.264443415117714L217.98333333333335,22.20866604907063L218.225,20.405199629442386L218.46666666666667,26.40311977766542L218.70833333333334,21.15187186659927L218.95,21.54112311995956L219.19166666666666,16.46467387197576L219.43333333333334,22.26880432318545L219.67499999999998,25.751282593911267L219.91666666666666,29.61076955634675L220.15833333333333,33.69646173380806L220.4,30.83787704028483L220.64166666666668,39.74272622417089L220.88333333333335,41.54563573450254L221.125,44.39738144070154L221.36666666666665,31.948428864420904L221.60833333333332,33.329057318652545L221.85,30.617434391191512L222.09166666666667,48.46046063471492L222.33333333333334,50.31627638082894L222.575,42.57976582849737L222.81666666666666,37.937859497098415L223.05833333333334,24.532715698259054L223.3,30.64962941895542L223.54166666666669,29.00977765137323L223.78333333333333,29.795866590823945L224.02499999999998,28.497519954494386L224.26666666666665,29.488511972696646L224.50833333333333,44.24310718361799L224.75,31.85586431017076L224.99166666666667,27.963518586102484L225.23333333333332,27.398111151661478L225.475,23.518866690996884L225.71666666666667,30.04132001459814L225.95833333333334,21.564792008758886L226.20000000000002,28.86887520525531L226.4416666666667,24.40132512315319L226.6833333333333,18.180795073891908L226.92499999999998,17.988477044335163L227.16666666666666,26.723086226601072L227.40833333333333,30.19385173596066L227.65,39.3563110415764L227.89166666666668,32.46378662494582L228.13333333333333,33.63827197496748L228.375,29.032963184980478L228.61666666666667,28.039777910988306L228.85833333333335,41.60386674659298L229.10000000000002,37.35232004795579L229.34166666666667,27.721392028773487L229.58333333333331,29.02283521726408L229.825,35.113701130358436L230.06666666666666,44.07822067821506L230.30833333333334,35.29693240692906L230.55,31.798159444157438L230.79166666666666,20.84889566649446L231.03333333333333,31.979337399896664L231.275,31.577602439937987L231.51666666666668,29.566561463962813L231.75833333333335,37.209936878377675L232,34.715962127026614L232.24166666666665,27.909577276215966L232.48333333333332,45.065746365729574L232.725,41.19944781943775L232.96666666666667,40.649668691662654L233.20833333333334,29.699801214997585L233.45000000000002,35.51988072899856L233.69166666666666,40.78192843739914L233.93333333333334,36.859157062439465L234.175,27.42549423746369L234.41666666666666,25.305296542478224L234.65833333333333,27.57317792548693L234.9,32.47390675529216L235.14166666666665,31.87434405317528L235.38333333333333,33.28460643190519L235.625,28.820763859143092L235.86666666666667,29.682458315485878L236.10833333333335,44.35947498929153L236.35,49.62568499357489L236.59166666666667,52.78541099614494L236.83333333333334,51.141246597686965L237.075,46.61474795861219L237.31666666666666,45.66884877516731L237.55833333333334,45.10130926510038L237.79999999999998,46.530785559060234L238.04166666666666,43.84847133543614L238.28333333333333,44.00908280126168L238.525,38.795449680757L238.76666666666668,33.89726980845421L239.00833333333335,36.26836188507254L239.25,35.921017131043506L239.49166666666665,35.712610278626116L239.73333333333332,35.58756616717566L239.975,33.74253970030539L240.21666666666667,45.025523820183246L240.45833333333334,32.32531429210993L240.7,21.16518857526596L240.94166666666666,30.39911314515957L241.18333333333334,30.629467887095746L241.425,36.077680732257456L241.66666666666669,34.03660843935448L241.90833333333333,34.58196506361267L242.14999999999998,27.829179038167602L242.39166666666665,41.477507422900565L242.63333333333333,42.58650445374034L242.875,41.4819026722442L243.11666666666667,40.819141603346516L243.35833333333332,40.42148496200791L243.6,52.57289097720475L243.84166666666667,42.16373458632285L244.08333333333334,48.308240751793704L244.32500000000002,39.60494445107622L244.5666666666667,39.69296667064574L244.8083333333333,34.435780002387425L245.04999999999998,38.361468001432456L245.29166666666666,46.02688080085947L245.53333333333333,45.31612848051568L245.775,36.03967708830941L246.01666666666668,30.473806252985653L246.25833333333333,34.21428375179139L246.5,38.22857025107484L246.74166666666667,31.7871421506449L246.98333333333335,31.462285290386944L247.22500000000002,41.887371174232165L247.46666666666667,35.7524227045393L247.70833333333331,26.761453622723582L247.95,37.29687217363415L248.19166666666666,32.998123304180496L248.43333333333334,46.3488739825083L248.675,33.11932438950497L248.91666666666666,30.491594633702977L249.15833333333333,30.684956780221796L249.4,25.490974068133077L249.64166666666668,24.144584440879854L249.88333333333335,26.876750664527904L250.125,23.206050398716748L250.36666666666665,17.463630239230042L250.60833333333332,26.408178143538027L250.85,22.92490688612281L251.09166666666667,26.144944131673693L251.33333333333334,20.996966479004193L251.57500000000002,26.758179887402527L251.81666666666666,39.06490793244152L252.05833333333334,37.59894475946489L252.3,34.94936685567894L252.54166666666666,31.58962011340736L252.78333333333333,26.033772068044424L253.025,20.93026324082664L253.26666666666665,23.178157944496018L253.50833333333333,26.2968947666976L253.75,26.398136860018553L253.99166666666667,19.378882116011123L254.23333333333335,20.477329269606667L254.475,22.90639756176399L254.71666666666667,20.8238385370584L254.95833333333334,23.114303122235032L255.2,28.028581873341036L255.44166666666666,30.97714912400461L255.68333333333334,29.20628947440276L255.92499999999998,35.22377368464168L256.1666666666667,22.904264210785005L256.4083333333333,31.442558526471007L256.65,33.02553511588262L256.89166666666665,37.51532106952958L257.1333333333333,31.359192641717755L257.375,20.585515585030656L257.6166666666667,35.36130935101838L257.85833333333335,31.83678561061101L258.1,29.72207136636663L258.3416666666667,37.30324281981998L258.58333333333337,47.161945691891994L258.825,33.60716741513519L259.06666666666666,27.244300449081127L259.30833333333334,26.966580269448677L259.55,26.799948161669207L259.7916666666667,35.54996889700152L260.0333333333333,30.179981338200925L260.275,41.117988802920536L260.51666666666665,44.140793281752345L260.7583333333333,35.33447596905138L261,38.90068558143085L261.2416666666667,39.27041134885849L261.4833333333333,35.952246809315106L261.72499999999997,33.96134808558909L261.96666666666664,39.84680885135344L262.2083333333333,43.37808531081206L262.45,33.10685118648723L262.69166666666666,30.484110711892352L262.93333333333334,43.070466427135415L263.175,48.85227985628124L263.4166666666667,41.701367913768735L263.65833333333336,46.26082074826125L263.90000000000003,64.92649244895675L264.1416666666667,61.96589546937403L264.3833333333333,44.25953728162443L264.625,31.86572236897465L264.8666666666667,43.89943342138478L265.10833333333335,40.499660052830855L265.35,38.45979603169852L265.5916666666667,39.0058776190191" style="fill: none;" fill="none"></path></g></g></g></g><g opacity="0.2"><g><g><g><path stroke="rgb(255, 112, 67)" stroke-width="2px" d="M24.166666666666664,177L24.408333333333335,172.575L24.650000000000002,172.575L24.891666666666666,181.42499999999998L25.133333333333333,181.42499999999998L25.375,172.575L25.616666666666667,181.42499999999998L25.858333333333334,177L26.099999999999998,177L26.34166666666667,181.42499999999998L26.583333333333332,172.575L26.825,181.42499999999998L27.066666666666666,181.42499999999998L27.308333333333334,177L27.55,181.42499999999998L27.791666666666668,172.575L28.03333333333333,181.42499999999998L28.758333333333333,181.42499999999998L29,172.575L29.241666666666667,181.42499999999998L29.483333333333334,177L29.724999999999998,177L29.966666666666665,172.575L30.208333333333336,181.42499999999998L30.45,181.42499999999998L30.691666666666666,177L30.933333333333334,181.42499999999998L31.175,177L31.416666666666668,177L31.65833333333333,177L31.9,177L32.141666666666666,181.42499999999998L32.38333333333333,172.575L32.625,177L32.86666666666667,172.575L33.108333333333334,168.15L33.35,150.45L33.59166666666667,168.15L33.833333333333336,181.42499999999998L34.074999999999996,168.15L34.31666666666666,177L34.55833333333334,168.15L34.8,168.15L35.041666666666664,168.15L35.28333333333334,177L35.525,168.15L35.766666666666666,159.3L36.00833333333333,181.42499999999998L36.25,172.575L36.49166666666667,181.42499999999998L36.733333333333334,172.575L36.975,163.725L37.21666666666666,168.15L37.458333333333336,150.45L37.7,168.15L37.94166666666666,163.725L38.18333333333333,154.875L38.425000000000004,154.875L38.666666666666664,159.3L38.90833333333333,172.575L39.150000000000006,168.15L39.391666666666666,154.875L39.63333333333333,168.15L39.875,159.3L40.11666666666667,168.15L40.358333333333334,177L40.6,168.15L40.84166666666667,154.875L41.083333333333336,163.725L41.324999999999996,163.725L41.56666666666667,159.3L41.80833333333333,146.025L42.05,168.15L42.29166666666667,154.875L42.53333333333333,150.45L42.775,168.15L43.01666666666667,154.875L43.25833333333333,150.45L43.5,154.875L43.74166666666667,159.3L43.983333333333334,154.875L44.225,137.175L44.46666666666666,141.6L44.708333333333336,163.725L44.95,150.45L45.19166666666666,177L45.43333333333334,132.75L45.675,163.725L45.916666666666664,154.875L46.15833333333334,141.6L46.4,132.75L46.641666666666666,150.45L46.88333333333333,128.325L47.125,159.3L47.36666666666667,154.875L47.60833333333333,150.45L47.85,141.6L48.09166666666667,159.3L48.33333333333333,154.875L48.575,132.75L48.81666666666667,146.025L49.05833333333333,154.875L49.300000000000004,137.175L49.541666666666664,146.025L49.78333333333333,150.45L50.025,132.75L50.266666666666666,150.45L50.50833333333333,141.6L50.75,159.3L50.99166666666667,137.175L51.233333333333334,137.175L51.474999999999994,150.45L51.71666666666667,101.77499999999999L51.958333333333336,115.05L52.199999999999996,123.89999999999999L52.44166666666667,128.325L52.68333333333334,110.625L52.925,70.8L53.166666666666664,141.6L53.40833333333334,146.025L53.65,159.3L53.891666666666666,123.89999999999999L54.13333333333333,128.325L54.375,119.47500000000001L54.61666666666667,106.2L54.858333333333334,146.025L55.1,132.75L55.34166666666666,154.875L55.583333333333336,137.175L55.825,163.725L56.06666666666666,128.325L56.30833333333333,132.75L56.550000000000004,115.05L56.791666666666664,128.325L57.03333333333333,137.175L57.275000000000006,101.77499999999999L57.516666666666666,150.45L57.75833333333333,119.47500000000001L58,84.075L58.24166666666667,123.89999999999999L58.483333333333334,101.77499999999999L58.725,115.05L58.96666666666667,101.77499999999999L59.208333333333336,110.625L59.449999999999996,101.77499999999999L59.69166666666667,115.05L59.93333333333333,97.35000000000001L60.175,128.325L60.41666666666667,132.75L60.65833333333333,97.35000000000001L60.9,101.77499999999999L61.14166666666667,128.325L61.38333333333333,146.025L61.625,141.6L61.86666666666667,84.075L62.108333333333334,92.925L62.35,106.2L62.59166666666666,137.175L62.833333333333336,128.325L63.075,141.6L63.31666666666666,123.89999999999999L63.55833333333334,128.325L63.8,61.949999999999996L64.04166666666667,84.075L64.28333333333333,70.8L64.525,119.47500000000001L64.76666666666667,84.075L65.00833333333333,101.77499999999999L65.25,128.325L65.49166666666666,119.47500000000001L65.73333333333333,70.8L65.97500000000001,39.824999999999996L66.21666666666667,66.375L66.45833333333333,44.25L66.7,84.075L66.94166666666666,30.97500000000001L67.18333333333334,57.52499999999999L67.425,66.375L67.66666666666667,75.22500000000001L67.90833333333333,53.10000000000001L68.14999999999999,101.77499999999999L68.39166666666667,110.625L68.63333333333333,26.550000000000004L68.875,53.10000000000001L69.11666666666667,26.550000000000004L69.35833333333333,66.375L69.6,48.675000000000004L69.84166666666667,97.35000000000001L70.08333333333333,53.10000000000001L70.325,61.949999999999996L70.56666666666668,30.97500000000001L70.80833333333334,44.25L71.05,61.949999999999996L71.29166666666666,57.52499999999999L71.53333333333333,53.10000000000001L71.775,70.8L72.01666666666667,61.949999999999996L72.25833333333334,39.824999999999996L72.5,79.64999999999999L72.74166666666667,17.699999999999996L72.98333333333333,35.39999999999999L73.225,57.52499999999999L73.46666666666667,66.375L73.70833333333333,39.824999999999996L73.95,70.8L74.19166666666668,44.25L74.43333333333332,97.35000000000001L74.675,48.675000000000004L74.91666666666667,30.97500000000001L75.15833333333333,0L75.4,26.550000000000004L75.64166666666667,61.949999999999996L75.88333333333333,13.274999999999991L76.125,30.97500000000001L76.36666666666666,13.274999999999991L76.60833333333333,66.375L76.85000000000001,53.10000000000001L77.09166666666665,30.97500000000001L77.33333333333333,30.97500000000001L77.575,70.8L77.81666666666666,8.850000000000009L78.05833333333334,30.97500000000001L78.30000000000001,53.10000000000001L78.54166666666666,61.949999999999996L78.78333333333333,97.35000000000001L79.025,66.375L79.26666666666667,8.850000000000009L79.50833333333334,53.10000000000001L79.75,30.97500000000001L79.99166666666666,35.39999999999999L80.23333333333333,44.25L80.47500000000001,39.824999999999996L80.71666666666667,13.274999999999991L80.95833333333333,35.39999999999999L81.2,4.425000000000004L81.44166666666666,26.550000000000004L81.68333333333334,48.675000000000004L81.925,26.550000000000004L82.16666666666667,35.39999999999999L82.40833333333333,35.39999999999999L82.64999999999999,22.125L82.89166666666667,30.97500000000001L83.13333333333334,8.850000000000009L83.375,39.824999999999996L83.61666666666666,35.39999999999999L83.85833333333333,61.949999999999996L84.1,39.824999999999996L84.34166666666667,17.699999999999996L84.58333333333334,30.97500000000001L84.82499999999999,17.699999999999996L85.06666666666666,39.824999999999996L85.30833333333334,39.824999999999996L85.55,53.10000000000001L85.79166666666667,48.675000000000004L86.03333333333335,35.39999999999999L86.27499999999999,48.675000000000004L86.51666666666667,48.675000000000004L86.75833333333334,53.10000000000001L87,44.25L87.24166666666667,26.550000000000004L87.48333333333333,53.10000000000001L87.725,61.949999999999996L87.96666666666667,30.97500000000001L88.20833333333333,22.125L88.45,44.25L88.69166666666668,30.97500000000001L88.93333333333332,48.675000000000004L89.175,57.52499999999999L89.41666666666667,44.25L89.65833333333333,48.675000000000004L89.9,26.550000000000004L90.14166666666667,92.925L90.38333333333333,70.8L90.625,26.550000000000004L90.86666666666667,53.10000000000001L91.10833333333333,66.375L91.35,66.375L91.59166666666667,8.850000000000009L91.83333333333333,22.125L92.075,35.39999999999999L92.31666666666668,57.52499999999999L92.55833333333332,57.52499999999999L92.8,4.425000000000004L93.04166666666667,30.97500000000001L93.28333333333333,61.949999999999996L93.525,26.550000000000004L93.76666666666667,30.97500000000001L94.00833333333333,30.97500000000001L94.25,84.075L94.49166666666666,35.39999999999999L94.73333333333333,30.97500000000001L94.97500000000001,0L95.21666666666665,61.949999999999996L95.45833333333333,35.39999999999999L95.7,17.699999999999996L95.94166666666666,17.699999999999996L96.18333333333334,66.375L96.42500000000001,39.824999999999996L96.66666666666666,22.125L96.90833333333333,53.10000000000001L97.15,44.25L97.39166666666667,39.824999999999996L97.63333333333334,53.10000000000001L97.875,39.824999999999996L98.11666666666666,48.675000000000004L98.35833333333333,48.675000000000004L98.60000000000001,48.675000000000004L98.84166666666667,30.97500000000001L99.08333333333333,17.699999999999996L99.325,-4.424999999999985L99.56666666666666,84.075L99.80833333333334,75.22500000000001L100.05,57.52499999999999L100.29166666666667,57.52499999999999L100.53333333333333,30.97500000000001L100.77499999999999,13.274999999999991L101.01666666666667,22.125L101.25833333333334,39.824999999999996L101.5,39.824999999999996L101.74166666666666,61.949999999999996L101.98333333333333,44.25L102.225,13.274999999999991L102.46666666666667,26.550000000000004L102.70833333333334,26.550000000000004L102.94999999999999,53.10000000000001L103.19166666666666,30.97500000000001L103.43333333333334,57.52499999999999L103.675,61.949999999999996L103.91666666666667,35.39999999999999L104.15833333333335,0L104.39999999999999,30.97500000000001L104.64166666666667,13.274999999999991L104.88333333333334,39.824999999999996L105.125,17.699999999999996L105.36666666666667,13.274999999999991L105.60833333333333,35.39999999999999L105.85,13.274999999999991L106.09166666666667,39.824999999999996L106.33333333333333,4.425000000000004L106.575,13.274999999999991L106.81666666666668,30.97500000000001L107.05833333333332,8.850000000000009L107.3,53.10000000000001L107.54166666666667,35.39999999999999L107.78333333333333,13.274999999999991L108.025,30.97500000000001L108.26666666666667,66.375L108.50833333333333,61.949999999999996L108.75,70.8L108.99166666666667,70.8L109.23333333333333,44.25L109.475,35.39999999999999L109.71666666666667,17.699999999999996L109.95833333333333,22.125L110.2,22.125L110.44166666666668,22.125L110.68333333333332,39.824999999999996L110.925,26.550000000000004L111.16666666666667,30.97500000000001L111.40833333333333,22.125L111.65,17.699999999999996L111.89166666666667,61.949999999999996L112.13333333333333,17.699999999999996L112.375,26.550000000000004L112.61666666666666,26.550000000000004L112.85833333333333,57.52499999999999L113.10000000000001,17.699999999999996L113.34166666666665,26.550000000000004L113.58333333333333,39.824999999999996L113.825,13.274999999999991L114.06666666666666,44.25L114.30833333333334,13.274999999999991L114.55000000000001,57.52499999999999L114.79166666666666,35.39999999999999L115.03333333333333,61.949999999999996L115.275,22.125L115.51666666666667,8.850000000000009L115.75833333333334,8.850000000000009L116,13.274999999999991L116.24166666666666,30.97500000000001L116.48333333333333,61.949999999999996L116.72500000000001,53.10000000000001L116.96666666666667,26.550000000000004L117.20833333333333,53.10000000000001L117.45,26.550000000000004L117.69166666666666,30.97500000000001L117.93333333333334,44.25L118.175,48.675000000000004L118.41666666666667,0L118.65833333333333,8.850000000000009L118.89999999999999,26.550000000000004L119.14166666666667,8.850000000000009L119.38333333333334,35.39999999999999L119.625,44.25L119.86666666666666,26.550000000000004L120.10833333333333,84.075L120.35,17.699999999999996L120.59166666666667,17.699999999999996L120.83333333333334,13.274999999999991L121.07499999999999,17.699999999999996L121.31666666666666,61.949999999999996L121.55833333333334,61.949999999999996L121.8,22.125L122.04166666666667,48.675000000000004L122.28333333333335,4.425000000000004L122.52499999999999,48.675000000000004L122.76666666666667,61.949999999999996L123.00833333333334,39.824999999999996L123.25,35.39999999999999L123.49166666666667,26.550000000000004L123.73333333333333,22.125L123.975,30.97500000000001L124.21666666666667,75.22500000000001L124.45833333333333,53.10000000000001L124.7,39.824999999999996L124.94166666666668,4.425000000000004L125.18333333333332,35.39999999999999L125.425,57.52499999999999L125.66666666666667,13.274999999999991L125.90833333333333,30.97500000000001L126.15,17.699999999999996L126.39166666666667,13.274999999999991L126.63333333333333,39.824999999999996L126.875,30.97500000000001L127.11666666666667,70.8L127.35833333333333,48.675000000000004L127.6,66.375L127.84166666666667,26.550000000000004L128.08333333333334,57.52499999999999L128.325,22.125L128.56666666666666,44.25L128.80833333333334,35.39999999999999L129.05,44.25L129.29166666666669,35.39999999999999L129.53333333333333,44.25L129.775,44.25L130.01666666666665,48.675000000000004L130.25833333333333,35.39999999999999L130.5,48.675000000000004L130.74166666666665,26.550000000000004L130.98333333333332,35.39999999999999L131.225,39.824999999999996L131.46666666666667,48.675000000000004L131.70833333333334,39.824999999999996L131.95000000000002,66.375L132.19166666666666,26.550000000000004L132.43333333333334,39.824999999999996L132.675,35.39999999999999L132.91666666666666,44.25L133.15833333333333,61.949999999999996L133.4,66.375L133.64166666666665,35.39999999999999L133.88333333333333,17.699999999999996L134.125,48.675000000000004L134.36666666666667,30.97500000000001L134.60833333333335,39.824999999999996L134.85,22.125L135.09166666666667,4.425000000000004L135.33333333333334,35.39999999999999L135.57500000000002,30.97500000000001L135.81666666666666,39.824999999999996L136.05833333333334,22.125L136.29999999999998,39.824999999999996L136.54166666666666,44.25L136.78333333333333,30.97500000000001L137.025,26.550000000000004L137.26666666666665,22.125L137.50833333333333,22.125L137.75,26.550000000000004L137.99166666666667,110.625L138.23333333333335,17.699999999999996L138.475,44.25L138.71666666666667,35.39999999999999L138.95833333333334,44.25L139.2,30.97500000000001L139.44166666666666,35.39999999999999L139.68333333333334,8.850000000000009L139.92499999999998,8.850000000000009L140.16666666666666,39.824999999999996L140.40833333333333,26.550000000000004L140.65,22.125L140.89166666666668,8.850000000000009L141.13333333333335,26.550000000000004L141.375,39.824999999999996L141.61666666666667,22.125L141.85833333333335,17.699999999999996L142.1,30.97500000000001L142.34166666666667,48.675000000000004L142.58333333333331,35.39999999999999L142.825,44.25L143.06666666666666,35.39999999999999L143.30833333333334,30.97500000000001L143.55,26.550000000000004L143.79166666666666,92.925L144.03333333333333,26.550000000000004L144.275,30.97500000000001L144.51666666666668,53.10000000000001L144.75833333333333,17.699999999999996L145,75.22500000000001L145.24166666666667,22.125L145.48333333333335,39.824999999999996L145.725,61.949999999999996L145.96666666666667,44.25L146.20833333333334,17.699999999999996L146.45,48.675000000000004L146.69166666666666,13.274999999999991L146.93333333333334,13.274999999999991L147.17499999999998,30.97500000000001L147.41666666666666,57.52499999999999L147.65833333333333,26.550000000000004L147.9,-4.424999999999985L148.14166666666668,39.824999999999996L148.38333333333335,13.274999999999991L148.625,8.850000000000009L148.86666666666665,17.699999999999996L149.10833333333332,22.125L149.35,30.97500000000001L149.59166666666667,44.25L149.83333333333334,13.274999999999991L150.075,39.824999999999996L150.31666666666666,22.125L150.55833333333334,26.550000000000004L150.8,44.25L151.04166666666669,22.125L151.28333333333333,57.52499999999999L151.52499999999998,22.125L151.76666666666665,4.425000000000004L152.00833333333333,44.25L152.25,13.274999999999991L152.49166666666667,13.274999999999991L152.73333333333332,30.97500000000001L152.975,17.699999999999996L153.21666666666667,26.550000000000004L153.45833333333334,66.375L153.70000000000002,53.10000000000001L153.9416666666667,8.850000000000009L154.1833333333333,30.97500000000001L154.42499999999998,22.125L154.66666666666666,26.550000000000004L154.90833333333333,39.824999999999996L155.15,30.97500000000001L155.39166666666668,22.125L155.63333333333333,13.274999999999991L155.875,26.550000000000004L156.11666666666667,13.274999999999991L156.35833333333335,30.97500000000001L156.60000000000002,13.274999999999991L156.84166666666667,30.97500000000001L157.08333333333331,48.675000000000004L157.325,30.97500000000001L157.56666666666666,66.375L157.80833333333334,66.375L158.05,35.39999999999999L158.29166666666666,53.10000000000001L158.53333333333333,44.25L158.775,35.39999999999999L159.01666666666668,17.699999999999996L159.25833333333335,13.274999999999991L159.5,39.824999999999996L159.74166666666665,22.125L159.98333333333332,22.125L160.225,22.125L160.46666666666667,39.824999999999996L160.70833333333334,39.824999999999996L160.95000000000002,26.550000000000004L161.19166666666666,26.550000000000004L161.43333333333334,44.25L161.675,17.699999999999996L161.91666666666666,22.125L162.15833333333333,13.274999999999991L162.4,35.39999999999999L162.64166666666665,39.824999999999996L162.88333333333333,35.39999999999999L163.125,26.550000000000004L163.36666666666667,48.675000000000004L163.60833333333335,44.25L163.85,61.949999999999996L164.09166666666667,39.824999999999996L164.33333333333334,35.39999999999999L164.575,30.97500000000001L164.81666666666666,35.39999999999999L165.05833333333334,22.125L165.29999999999998,22.125L165.54166666666666,30.97500000000001L165.78333333333333,4.425000000000004L166.025,35.39999999999999L166.26666666666668,0L166.50833333333335,0L166.75,35.39999999999999L166.99166666666665,48.675000000000004L167.23333333333332,22.125L167.475,30.97500000000001L167.71666666666667,48.675000000000004L167.95833333333334,79.64999999999999L168.2,8.850000000000009L168.44166666666666,44.25L168.68333333333334,53.10000000000001L168.925,13.274999999999991L169.16666666666669,30.97500000000001L169.40833333333333,79.64999999999999L169.64999999999998,30.97500000000001L169.89166666666665,70.8L170.13333333333333,13.274999999999991L170.375,22.125L170.61666666666667,57.52499999999999L170.85833333333332,39.824999999999996L171.1,13.274999999999991L171.34166666666667,0L171.58333333333334,35.39999999999999L171.82500000000002,17.699999999999996L172.0666666666667,22.125L172.3083333333333,48.675000000000004L172.54999999999998,13.274999999999991L172.79166666666666,17.699999999999996L173.03333333333333,44.25L173.275,0L173.51666666666668,4.425000000000004L173.75833333333333,13.274999999999991L174,35.39999999999999L174.24166666666667,4.425000000000004L174.48333333333335,39.824999999999996L174.72500000000002,35.39999999999999L174.96666666666667,4.425000000000004L175.20833333333331,22.125L175.45,39.824999999999996L175.69166666666666,13.274999999999991L175.93333333333334,39.824999999999996L176.175,22.125L176.41666666666666,17.699999999999996L176.65833333333333,22.125L176.9,30.97500000000001L177.14166666666668,26.550000000000004L177.38333333333335,26.550000000000004L177.625,70.8L177.86666666666665,39.824999999999996L178.10833333333332,44.25L178.35,48.675000000000004L178.59166666666667,22.125L178.83333333333334,48.675000000000004L179.07500000000002,39.824999999999996L179.31666666666666,61.949999999999996L179.55833333333334,35.39999999999999L179.8,35.39999999999999L180.04166666666666,26.550000000000004L180.28333333333333,22.125L180.525,22.125L180.76666666666665,53.10000000000001L181.00833333333333,44.25L181.25,53.10000000000001L181.49166666666667,115.05L181.73333333333335,4.425000000000004L181.975,44.25L182.21666666666667,44.25L182.45833333333334,22.125L182.7,8.850000000000009L182.94166666666666,44.25L183.18333333333334,44.25L183.42499999999998,35.39999999999999L183.66666666666666,22.125L183.90833333333333,22.125L184.15,13.274999999999991L184.39166666666668,44.25L184.63333333333335,17.699999999999996L184.875,39.824999999999996L185.11666666666665,57.52499999999999L185.35833333333332,39.824999999999996L185.6,39.824999999999996L185.84166666666667,26.550000000000004L186.08333333333334,30.97500000000001L186.325,17.699999999999996L186.56666666666666,70.8L186.80833333333334,30.97500000000001L187.05,26.550000000000004L187.29166666666669,26.550000000000004L187.53333333333333,35.39999999999999L187.77499999999998,44.25L188.01666666666665,13.274999999999991L188.25833333333333,17.699999999999996L188.5,22.125L188.74166666666667,44.25L188.98333333333332,79.64999999999999L189.225,44.25L189.46666666666667,22.125L189.70833333333334,30.97500000000001L189.95000000000002,70.8L190.1916666666667,35.39999999999999L190.4333333333333,26.550000000000004L190.67499999999998,4.425000000000004L190.91666666666666,35.39999999999999L191.15833333333333,35.39999999999999L191.4,53.10000000000001L191.64166666666668,17.699999999999996L191.88333333333333,35.39999999999999L192.125,26.550000000000004L192.36666666666667,13.274999999999991L192.60833333333335,30.97500000000001L192.85000000000002,26.550000000000004L193.09166666666667,39.824999999999996L193.33333333333331,30.97500000000001L193.575,35.39999999999999L193.81666666666666,8.850000000000009L194.05833333333334,30.97500000000001L194.3,17.699999999999996L194.54166666666666,8.850000000000009L194.78333333333333,0L195.025,53.10000000000001L195.26666666666668,35.39999999999999L195.50833333333335,13.274999999999991L195.75,8.850000000000009L195.99166666666665,26.550000000000004L196.23333333333332,26.550000000000004L196.475,17.699999999999996L196.71666666666667,26.550000000000004L196.95833333333334,92.925L197.20000000000002,8.850000000000009L197.44166666666666,48.675000000000004L197.68333333333334,13.274999999999991L197.925,35.39999999999999L198.16666666666666,22.125L198.40833333333333,61.949999999999996L198.65,13.274999999999991L198.89166666666665,13.274999999999991L199.13333333333333,26.550000000000004L199.375,48.675000000000004L199.61666666666667,26.550000000000004L199.85833333333335,22.125L200.1,35.39999999999999L200.34166666666667,30.97500000000001L200.58333333333334,13.274999999999991L200.825,30.97500000000001L201.06666666666666,26.550000000000004L201.30833333333334,39.824999999999996L201.54999999999998,84.075L201.79166666666666,0L202.03333333333333,53.10000000000001L202.275,13.274999999999991L202.51666666666668,61.949999999999996L202.75833333333335,13.274999999999991L203,22.125L203.24166666666665,48.675000000000004L203.48333333333332,39.824999999999996L203.725,53.10000000000001L203.96666666666667,35.39999999999999L204.20833333333334,13.274999999999991L204.45,48.675000000000004L204.69166666666666,17.699999999999996L204.93333333333334,39.824999999999996L205.175,13.274999999999991L205.41666666666669,30.97500000000001L205.65833333333333,48.675000000000004L205.89999999999998,26.550000000000004L206.14166666666665,48.675000000000004L206.38333333333333,39.824999999999996L206.625,8.850000000000009L206.86666666666667,30.97500000000001L207.10833333333332,39.824999999999996L207.35,39.824999999999996L207.59166666666667,17.699999999999996L207.83333333333334,30.97500000000001L208.07500000000002,22.125L208.3166666666667,22.125L208.5583333333333,61.949999999999996L208.79999999999998,26.550000000000004L209.04166666666666,26.550000000000004L209.28333333333333,26.550000000000004L209.525,26.550000000000004L209.76666666666668,39.824999999999996L210.00833333333333,35.39999999999999L210.25,17.699999999999996L210.49166666666667,35.39999999999999L210.73333333333335,39.824999999999996L210.97500000000002,35.39999999999999L211.21666666666667,13.274999999999991L211.45833333333331,44.25L211.7,8.850000000000009L211.94166666666666,30.97500000000001L212.18333333333334,66.375L212.425,39.824999999999996L212.66666666666666,53.10000000000001L212.90833333333333,13.274999999999991L213.15,48.675000000000004L213.39166666666668,26.550000000000004L213.63333333333335,26.550000000000004L213.875,13.274999999999991L214.11666666666665,26.550000000000004L214.35833333333332,22.125L214.6,48.675000000000004L214.84166666666667,30.97500000000001L215.08333333333334,61.949999999999996L215.32500000000002,39.824999999999996L215.56666666666666,4.425000000000004L215.80833333333334,30.97500000000001L216.05,26.550000000000004L216.29166666666666,8.850000000000009L216.53333333333333,13.274999999999991L216.775,8.850000000000009L217.01666666666665,30.97500000000001L217.25833333333333,17.699999999999996L217.5,26.550000000000004L217.74166666666667,22.125L217.98333333333335,22.125L218.225,17.699999999999996L218.46666666666667,35.39999999999999L218.70833333333334,13.274999999999991L218.95,22.125L219.19166666666666,8.850000000000009L219.43333333333334,30.97500000000001L219.67499999999998,30.97500000000001L219.91666666666666,35.39999999999999L220.15833333333333,39.824999999999996L220.4,26.550000000000004L220.64166666666668,53.10000000000001L220.88333333333335,44.25L221.125,48.675000000000004L221.36666666666665,13.274999999999991L221.60833333333332,35.39999999999999L221.85,26.550000000000004L222.09166666666667,75.22500000000001L222.33333333333334,53.10000000000001L222.575,30.97500000000001L222.81666666666666,30.97500000000001L223.05833333333334,4.425000000000004L223.3,39.824999999999996L223.54166666666669,26.550000000000004L223.78333333333333,30.97500000000001L224.02499999999998,26.550000000000004L224.26666666666665,30.97500000000001L224.50833333333333,66.375L224.75,13.274999999999991L224.99166666666667,22.125L225.23333333333332,26.550000000000004L225.475,17.699999999999996L225.71666666666667,39.824999999999996L225.95833333333334,8.850000000000009L226.20000000000002,39.824999999999996L226.4416666666667,17.699999999999996L226.6833333333333,8.850000000000009L226.92499999999998,17.699999999999996L227.16666666666666,39.824999999999996L227.40833333333333,35.39999999999999L227.65,53.10000000000001L227.89166666666668,22.125L228.13333333333333,35.39999999999999L228.375,22.125L228.61666666666667,26.550000000000004L228.85833333333335,61.949999999999996L229.10000000000002,30.97500000000001L229.34166666666667,13.274999999999991L229.58333333333331,30.97500000000001L229.825,44.25L230.06666666666666,57.52499999999999L230.30833333333334,22.125L230.55,26.550000000000004L230.79166666666666,4.425000000000004L231.03333333333333,48.675000000000004L231.275,30.97500000000001L231.51666666666668,26.550000000000004L231.75833333333335,48.675000000000004L232,30.97500000000001L232.24166666666665,17.699999999999996L232.48333333333332,70.8L232.725,35.39999999999999L232.96666666666667,39.824999999999996L233.20833333333334,13.274999999999991L233.45000000000002,44.25L233.69166666666666,48.675000000000004L233.93333333333334,30.97500000000001L234.175,13.274999999999991L234.41666666666666,22.125L234.65833333333333,30.97500000000001L234.9,39.824999999999996L235.14166666666665,30.97500000000001L235.38333333333333,35.39999999999999L235.625,22.125L235.86666666666667,30.97500000000001L236.10833333333335,66.375L236.35,57.52499999999999L236.59166666666667,57.52499999999999L236.83333333333334,48.675000000000004L237.075,39.824999999999996L237.31666666666666,44.25L237.55833333333334,44.25L237.79999999999998,48.675000000000004L238.04166666666666,39.824999999999996L238.28333333333333,44.25L238.525,30.97500000000001L238.76666666666668,26.550000000000004L239.00833333333335,39.824999999999996L239.25,35.39999999999999L239.49166666666665,35.39999999999999L239.73333333333332,35.39999999999999L239.975,30.97500000000001L240.21666666666667,61.949999999999996L240.45833333333334,13.274999999999991L240.7,4.425000000000004L240.94166666666666,44.25L241.18333333333334,30.97500000000001L241.425,44.25L241.66666666666669,30.97500000000001L241.90833333333333,35.39999999999999L242.14999999999998,17.699999999999996L242.39166666666665,61.949999999999996L242.63333333333333,44.25L242.875,39.824999999999996L243.11666666666667,39.824999999999996L243.35833333333332,39.824999999999996L243.6,70.8L243.84166666666667,26.550000000000004L244.08333333333334,57.52499999999999L244.32500000000002,26.550000000000004L244.5666666666667,39.824999999999996L244.8083333333333,26.550000000000004L245.04999999999998,44.25L245.29166666666666,57.52499999999999L245.53333333333333,44.25L245.775,22.125L246.01666666666668,22.125L246.25833333333333,39.824999999999996L246.5,44.25L246.74166666666667,22.125L246.98333333333335,30.97500000000001L247.22500000000002,57.52499999999999L247.46666666666667,26.550000000000004L247.70833333333331,13.274999999999991L247.95,53.10000000000001L248.19166666666666,26.550000000000004L248.43333333333334,66.375L248.675,13.274999999999991L248.91666666666666,26.550000000000004L249.15833333333333,30.97500000000001L249.4,17.699999999999996L249.64166666666668,22.125L249.88333333333335,30.97500000000001L250.125,17.699999999999996L250.36666666666665,8.850000000000009L250.60833333333332,39.824999999999996L250.85,17.699999999999996L251.09166666666667,30.97500000000001L251.33333333333334,13.274999999999991L251.57500000000002,35.39999999999999L251.81666666666666,57.52499999999999L252.05833333333334,35.39999999999999L252.3,30.97500000000001L252.54166666666666,26.550000000000004L252.78333333333333,17.699999999999996L253.025,13.274999999999991L253.26666666666665,26.550000000000004L253.50833333333333,30.97500000000001L253.75,26.550000000000004L253.99166666666667,8.850000000000009L254.23333333333335,22.125L254.475,26.550000000000004L254.71666666666667,17.699999999999996L254.95833333333334,26.550000000000004L255.2,35.39999999999999L255.44166666666666,35.39999999999999L255.68333333333334,26.550000000000004L255.92499999999998,44.25L256.1666666666667,4.425000000000004L256.4083333333333,44.25L256.65,35.39999999999999L256.89166666666665,44.25L257.1333333333333,22.125L257.375,4.425000000000004L257.6166666666667,57.52499999999999L257.85833333333335,26.550000000000004L258.1,26.550000000000004L258.3416666666667,48.675000000000004L258.58333333333337,61.949999999999996L258.825,13.274999999999991L259.06666666666666,17.699999999999996L259.30833333333334,26.550000000000004L259.55,26.550000000000004L259.7916666666667,48.675000000000004L260.0333333333333,22.125L260.275,57.52499999999999L260.51666666666665,48.675000000000004L260.7583333333333,22.125L261,44.25L261.2416666666667,39.824999999999996L261.4833333333333,30.97500000000001L261.72499999999997,30.97500000000001L261.96666666666664,48.675000000000004L262.2083333333333,48.675000000000004L262.45,17.699999999999996L262.69166666666666,26.550000000000004L262.93333333333334,61.949999999999996L263.175,57.52499999999999L263.4166666666667,30.97500000000001L263.65833333333336,53.10000000000001L263.90000000000003,92.925L264.1416666666667,57.52499999999999L264.3833333333333,17.699999999999996L264.625,13.274999999999991L264.8666666666667,61.949999999999996L265.10833333333335,35.39999999999999L265.35,35.39999999999999L265.5916666666667,39.824999999999996" style="fill: none;" fill="none"></path></g></g></g></g></g><g><g><span fill="rgb(0, 0, 0)" stroke="none" stroke-width="1px">Alt + Scroll to Zoom</span></g></g></g><g transform="translate(40, 177)" clip-path="url(#clip_1)"><clipPath id="clip_1"><rect width="290" height="23"></rect></clipPath><g><g><line x1="0" y1="0" x2="0" y2="5" style="visibility: inherit;" fill="rgb(0, 0, 0)" stroke="rgb(204, 204, 204)" stroke-width="1px"></line><line x1="24.166666666666664" y1="0" x2="24.166666666666664" y2="5" style="visibility: inherit;" fill="rgb(0, 0, 0)" stroke="rgb(204, 204, 204)" stroke-width="1px"></line><line x1="48.33333333333333" y1="0" x2="48.33333333333333" y2="5" style="visibility: inherit;" fill="rgb(0, 0, 0)" stroke="rgb(204, 204, 204)" stroke-width="1px"></line><line x1="72.5" y1="0" x2="72.5" y2="5" style="visibility: inherit;" fill="rgb(0, 0, 0)" stroke="rgb(204, 204, 204)" stroke-width="1px"></line><line x1="96.66666666666666" y1="0" x2="96.66666666666666" y2="5" style="visibility: inherit;" fill="rgb(0, 0, 0)" stroke="rgb(204, 204, 204)" stroke-width="1px"></line><line x1="120.83333333333334" y1="0" x2="120.83333333333334" y2="5" style="visibility: inherit;" fill="rgb(0, 0, 0)" stroke="rgb(204, 204, 204)" stroke-width="1px"></line><line x1="145" y1="0" x2="145" y2="5" style="visibility: inherit;" fill="rgb(0, 0, 0)" stroke="rgb(204, 204, 204)" stroke-width="1px"></line><line x1="169.16666666666669" y1="0" x2="169.16666666666669" y2="5" style="visibility: inherit;" fill="rgb(0, 0, 0)" stroke="rgb(204, 204, 204)" stroke-width="1px"></line><line x1="193.33333333333331" y1="0" x2="193.33333333333331" y2="5" style="visibility: inherit;" fill="rgb(0, 0, 0)" stroke="rgb(204, 204, 204)" stroke-width="1px"></line><line x1="217.5" y1="0" x2="217.5" y2="5" style="visibility: inherit;" fill="rgb(0, 0, 0)" stroke="rgb(204, 204, 204)" stroke-width="1px"></line><line x1="241.66666666666669" y1="0" x2="241.66666666666669" y2="5" style="visibility: inherit;" fill="rgb(0, 0, 0)" stroke="rgb(204, 204, 204)" stroke-width="1px"></line><line x1="265.8333333333333" y1="0" x2="265.8333333333333" y2="5" style="visibility: inherit;" fill="rgb(0, 0, 0)" stroke="rgb(204, 204, 204)" stroke-width="1px"></line><line x1="290" y1="0" x2="290" y2="5" style="visibility: inherit;" fill="rgb(0, 0, 0)" stroke="rgb(204, 204, 204)" stroke-width="1px"></line></g><g transform="translate(0, 8)"><text x="0" y="0" dx="0em" dy="0.95em" style="text-anchor: middle; visibility: hidden; font-family: Roboto, sans-serif; font-size: 12px; font-weight: 200;" fill="rgb(33, 33, 33)" stroke="none" stroke-width="1px">-100</text><text x="24.166666666666664" y="0" dx="0em" dy="0.95em" style="text-anchor: middle; visibility: inherit; font-family: Roboto, sans-serif; font-size: 12px; font-weight: 200;" fill="rgb(33, 33, 33)" stroke="none" stroke-width="1px">0</text><text x="48.33333333333333" y="0" dx="0em" dy="0.95em" style="text-anchor: middle; visibility: hidden; font-family: Roboto, sans-serif; font-size: 12px; font-weight: 200;" fill="rgb(33, 33, 33)" stroke="none" stroke-width="1px">100</text><text x="72.5" y="0" dx="0em" dy="0.95em" style="text-anchor: middle; visibility: inherit; font-family: Roboto, sans-serif; font-size: 12px; font-weight: 200;" fill="rgb(33, 33, 33)" stroke="none" stroke-width="1px">200</text><text x="96.66666666666666" y="0" dx="0em" dy="0.95em" style="text-anchor: middle; visibility: hidden; font-family: Roboto, sans-serif; font-size: 12px; font-weight: 200;" fill="rgb(33, 33, 33)" stroke="none" stroke-width="1px">300</text><text x="120.83333333333334" y="0" dx="0em" dy="0.95em" style="text-anchor: middle; visibility: inherit; font-family: Roboto, sans-serif; font-size: 12px; font-weight: 200;" fill="rgb(33, 33, 33)" stroke="none" stroke-width="1px">400</text><text x="145" y="0" dx="0em" dy="0.95em" style="text-anchor: middle; visibility: hidden; font-family: Roboto, sans-serif; font-size: 12px; font-weight: 200;" fill="rgb(33, 33, 33)" stroke="none" stroke-width="1px">500</text><text x="169.16666666666669" y="0" dx="0em" dy="0.95em" style="text-anchor: middle; visibility: inherit; font-family: Roboto, sans-serif; font-size: 12px; font-weight: 200;" fill="rgb(33, 33, 33)" stroke="none" stroke-width="1px">600</text><text x="193.33333333333331" y="0" dx="0em" dy="0.95em" style="text-anchor: middle; visibility: hidden; font-family: Roboto, sans-serif; font-size: 12px; font-weight: 200;" fill="rgb(33, 33, 33)" stroke="none" stroke-width="1px">700</text><text x="217.5" y="0" dx="0em" dy="0.95em" style="text-anchor: middle; visibility: inherit; font-family: Roboto, sans-serif; font-size: 12px; font-weight: 200;" fill="rgb(33, 33, 33)" stroke="none" stroke-width="1px">800</text><text x="241.66666666666669" y="0" dx="0em" dy="0.95em" style="text-anchor: middle; visibility: hidden; font-family: Roboto, sans-serif; font-size: 12px; font-weight: 200;" fill="rgb(33, 33, 33)" stroke="none" stroke-width="1px">900</text><text x="265.8333333333333" y="0" dx="0em" dy="0.95em" style="text-anchor: middle; visibility: inherit; font-family: Roboto, sans-serif; font-size: 12px; font-weight: 200;" fill="rgb(33, 33, 33)" stroke="none" stroke-width="1px">1k</text><text x="290" y="0" dx="0em" dy="0.95em" style="text-anchor: middle; visibility: hidden; font-family: Roboto, sans-serif; font-size: 12px; font-weight: 200;" fill="rgb(33, 33, 33)" stroke="none" stroke-width="1px">1.1k</text></g><line x1="0" y1="0" x2="290" y2="0" fill="rgb(0, 0, 0)" stroke="rgb(204, 204, 204)" stroke-width="1px"></line></g></g></g></g></svg>