<svg viewBox="0 0 330 200" xmlns="http://www.w3.org/2000/svg"><g><g><g><g><g><line x1="30" y1="177" x2="25" y2="177" style="visibility: inherit;" fill="rgb(0, 0, 0)" stroke="rgb(204, 204, 204)" stroke-width="1px"></line><line x1="30" y1="157.33333333333331" x2="25" y2="157.33333333333331" style="visibility: inherit;" fill="rgb(0, 0, 0)" stroke="rgb(204, 204, 204)" stroke-width="1px"></line><line x1="30" y1="137.66666666666666" x2="25" y2="137.66666666666666" style="visibility: inherit;" fill="rgb(0, 0, 0)" stroke="rgb(204, 204, 204)" stroke-width="1px"></line><line x1="30" y1="118.00000000000001" x2="25" y2="118.00000000000001" style="visibility: inherit;" fill="rgb(0, 0, 0)" stroke="rgb(204, 204, 204)" stroke-width="1px"></line><line x1="30" y1="98.33333333333334" x2="25" y2="98.33333333333334" style="visibility: inherit;" fill="rgb(0, 0, 0)" stroke="rgb(204, 204, 204)" stroke-width="1px"></line><line x1="30" y1="78.66666666666666" x2="25" y2="78.66666666666666" style="visibility: inherit;" fill="rgb(0, 0, 0)" stroke="rgb(204, 204, 204)" stroke-width="1px"></line><line x1="30" y1="59.00000000000001" x2="25" y2="59.00000000000001" style="visibility: inherit;" fill="rgb(0, 0, 0)" stroke="rgb(204, 204, 204)" stroke-width="1px"></line><line x1="30" y1="39.33333333333333" x2="25" y2="39.33333333333333" style="visibility: inherit;" fill="rgb(0, 0, 0)" stroke="rgb(204, 204, 204)" stroke-width="1px"></line><line x1="30" y1="19.666666666666675" x2="25" y2="19.666666666666675" style="visibility: inherit;" fill="rgb(0, 0, 0)" stroke="rgb(204, 204, 204)" stroke-width="1px"></line><line x1="30" y1="0" x2="25" y2="0" style="visibility: inherit;" fill="rgb(0, 0, 0)" stroke="rgb(204, 204, 204)" stroke-width="1px"></line></g><g transform="translate(20, 0)"><text x="0" y="177" dx="0em" dy="0.3em" style="text-anchor: end; visibility: hidden; font-family: Roboto, sans-serif; font-size: 12px; font-weight: 200;" fill="rgb(33, 33, 33)" stroke="none" stroke-width="1px">1</text><text x="0" y="157.33333333333331" dx="0em" dy="0.3em" style="text-anchor: end; visibility: inherit; font-family: Roboto, sans-serif; font-size: 12px; font-weight: 200;" fill="rgb(33, 33, 33)" stroke="none" stroke-width="1px">2</text><text x="0" y="137.66666666666666" dx="0em" dy="0.3em" style="text-anchor: end; visibility: hidden; font-family: Roboto, sans-serif; font-size: 12px; font-weight: 200;" fill="rgb(33, 33, 33)" stroke="none" stroke-width="1px">3</text><text x="0" y="118.00000000000001" dx="0em" dy="0.3em" style="text-anchor: end; visibility: inherit; font-family: Roboto, sans-serif; font-size: 12px; font-weight: 200;" fill="rgb(33, 33, 33)" stroke="none" stroke-width="1px">4</text><text x="0" y="98.33333333333334" dx="0em" dy="0.3em" style="text-anchor: end; visibility: hidden; font-family: Roboto, sans-serif; font-size: 12px; font-weight: 200;" fill="rgb(33, 33, 33)" stroke="none" stroke-width="1px">5</text><text x="0" y="78.66666666666666" dx="0em" dy="0.3em" style="text-anchor: end; visibility: inherit; font-family: Roboto, sans-serif; font-size: 12px; font-weight: 200;" fill="rgb(33, 33, 33)" stroke="none" stroke-width="1px">6</text><text x="0" y="59.00000000000001" dx="0em" dy="0.3em" style="text-anchor: end; visibility: hidden; font-family: Roboto, sans-serif; font-size: 12px; font-weight: 200;" fill="rgb(33, 33, 33)" stroke="none" stroke-width="1px">7</text><text x="0" y="39.33333333333333" dx="0em" dy="0.3em" style="text-anchor: end; visibility: inherit; font-family: Roboto, sans-serif; font-size: 12px; font-weight: 200;" fill="rgb(33, 33, 33)" stroke="none" stroke-width="1px">8</text><text x="0" y="19.666666666666675" dx="0em" dy="0.3em" style="text-anchor: end; visibility: hidden; font-family: Roboto, sans-serif; font-size: 12px; font-weight: 200;" fill="rgb(33, 33, 33)" stroke="none" stroke-width="1px">9</text><text x="0" y="0" dx="0em" dy="0.3em" style="text-anchor: end; visibility: hidden; font-family: Roboto, sans-serif; font-size: 12px; font-weight: 200;" fill="rgb(33, 33, 33)" stroke="none" stroke-width="1px">10</text></g><line x1="30" y1="0" x2="30" y2="177" fill="rgb(0, 0, 0)" stroke="rgb(204, 204, 204)" stroke-width="1px"></line></g></g><g transform="translate(30, 0)" clip-path="url(#clip_0)"><clipPath id="clip_0"><rect width="300" height="177"></rect></clipPath><g><g><g><line x1="0" y1="0" x2="0" y2="177" fill="rgb(0, 0, 0)" stroke="rgb(66, 66, 66)" stroke-width="1px" opacity="0.25"></line><line x1="25" y1="0" x2="25" y2="177" fill="rgb(0, 0, 0)" stroke="rgb(66, 66, 66)" stroke-width="1px" opacity="0.25"></line><line x1="50" y1="0" x2="50" y2="177" fill="rgb(0, 0, 0)" stroke="rgb(66, 66, 66)" stroke-width="1px" opacity="0.25"></line><line x1="75" y1="0" x2="75" y2="177" fill="rgb(0, 0, 0)" stroke="rgb(66, 66, 66)" stroke-width="1px" opacity="0.25"></line><line x1="100" y1="0" x2="100" y2="177" fill="rgb(0, 0, 0)" stroke="rgb(66, 66, 66)" stroke-width="1px" opacity="0.25"></line><line x1="125" y1="0" x2="125" y2="177" fill="rgb(0, 0, 0)" stroke="rgb(66, 66, 66)" stroke-width="1px" opacity="0.25"></line><line x1="150" y1="0" x2="150" y2="177" fill="rgb(0, 0, 0)" stroke="rgb(66, 66, 66)" stroke-width="1px" opacity="0.25"></line><line x1="175" y1="0" x2="175" y2="177" fill="rgb(0, 0, 0)" stroke="rgb(66, 66, 66)" stroke-width="1px" opacity="0.25"></line><line x1="200" y1="0" x2="200" y2="177" fill="rgb(0, 0, 0)" stroke="rgb(66, 66, 66)" stroke-width="1px" opacity="0.25"></line><line x1="225" y1="0" x2="225" y2="177" fill="rgb(0, 0, 0)" stroke="rgb(66, 66, 66)" stroke-width="1px" opacity="0.25"></line><line x1="250" y1="0" x2="250" y2="177" fill="rgb(0, 0, 0)" stroke="rgb(66, 66, 66)" stroke-width="1px" opacity="0.25"></line><line x1="275" y1="0" x2="275" y2="177" fill="rgb(0, 0, 0)" stroke="rgb(66, 66, 66)" stroke-width="1px" opacity="0.25"></line><line x1="300" y1="0" x2="300" y2="177" fill="rgb(0, 0, 0)" stroke="rgb(66, 66, 66)" stroke-width="1px" opacity="0.25"></line></g><g><line x1="0" y1="177" x2="300" y2="177" fill="rgb(0, 0, 0)" stroke="rgb(66, 66, 66)" stroke-width="1px" opacity="0.25"></line><line x1="0" y1="157.33333333333331" x2="300" y2="157.33333333333331" fill="rgb(0, 0, 0)" stroke="rgb(66, 66, 66)" stroke-width="1px" opacity="0.25"></line><line x1="0" y1="137.66666666666666" x2="300" y2="137.66666666666666" fill="rgb(0, 0, 0)" stroke="rgb(66, 66, 66)" stroke-width="1px" opacity="0.25"></line><line x1="0" y1="118.00000000000001" x2="300" y2="118.00000000000001" fill="rgb(0, 0, 0)" stroke="rgb(66, 66, 66)" stroke-width="1px" opacity="0.25"></line><line x1="0" y1="98.33333333333334" x2="300" y2="98.33333333333334" fill="rgb(0, 0, 0)" stroke="rgb(66, 66, 66)" stroke-width="1px" opacity="0.25"></line><line x1="0" y1="78.66666666666666" x2="300" y2="78.66666666666666" fill="rgb(0, 0, 0)" stroke="rgb(66, 66, 66)" stroke-width="1px" opacity="0.25"></line><line x1="0" y1="59.00000000000001" x2="300" y2="59.00000000000001" fill="rgb(0, 0, 0)" stroke="rgb(66, 66, 66)" stroke-width="1px" opacity="0.25"></line><line x1="0" y1="39.33333333333333" x2="300" y2="39.33333333333333" fill="rgb(0, 0, 0)" stroke="rgb(66, 66, 66)" stroke-width="1px" opacity="0.25"></line><line x1="0" y1="19.666666666666675" x2="300" y2="19.666666666666675" fill="rgb(0, 0, 0)" stroke="rgb(66, 66, 66)" stroke-width="1px" opacity="0.25"></line><line x1="0" y1="0" x2="300" y2="0" fill="rgb(0, 0, 0)" stroke="rgb(66, 66, 66)" stroke-width="1px" opacity="0.25"></line></g></g></g><g><g><line x1="0" y1="196.66666666666669" x2="300" y2="196.66666666666669" fill="rgb(0, 0, 0)" stroke="rgb(153, 153, 153)" stroke-width="1.5px"></line></g></g><g><g><line x1="25" y1="0" x2="25" y2="177" fill="rgb(0, 0, 0)" stroke="rgb(153, 153, 153)" stroke-width="1.5px"></line></g></g><g><g><g><g><g><path stroke="rgb(255, 112, 67)" stroke-width="2px" d="M27.25,196.66666666666669L27.499999999999996,67.2510854811934L27.75,7.428892011736357L28,43.35228972428678L28.25,66.75973435420602L28.5,82.2597321902132L28.750000000000004,96.59847031511218L29,109.36415424270807L29.25,121.30254360681849L29.5,130.6531685637497L29.75,96.72423964268866L30,105.99985737561813L30.25,116.219363670395L30.5,121.48410967347877L30.749999999999996,125.9549151272013L31,122.90612013669889L31.25,124.97290817314402L31.5,124.38778178060112L31.75,124.2878682804317L32,122.17354038092233L32.25,123.96345531019035L32.5,105.69437007414322L32.75,101.2720629131309L33,101.4783220243904L33.25,106.75645270881547L33.5,103.18952842940915L33.75,100.74104317120506L34,99.35975072378488L34.25,88.91763751758799L34.5,60.26920630740361L34.75,46.13466130318614L35,61.944875443477365L35.25,68.81164254946088L35.5,76.81946755204892L35.75,60.181085969631056L36,64.76857723380577L36.25,56.27616632876749L36.5,55.48915751512654L36.75,57.1547561948026L37,49.73155165887954L37.25,74.08534117466274L37.5,74.41533065593043L37.75,81.32315342084074L38,78.90100315682963L38.25,75.14181013587442L38.5,78.02105479846577L38.75000000000001,68.25580323582625L39,58.513415158860084L39.25,65.75105255906215L39.49999999999999,49.67174054422504L39.75,34.55911058528266L40,30.302747819878768L40.25,51.17269883993791L40.5,63.9055873698605L40.75,27.954358332153674L41,39.339451801456974L41.25,37.61426551243339L41.5,50.25089083771314L41.75,64.90952078497654L42.00000000000001,73.98304678596801L42.25,65.22696764626748L42.5,62.49424841816414L42.74999999999999,54.29758213449629L43,50.71005550119744L43.25,39.81995305474678L43.5,45.44533130957334L43.75,46.128117593727396L44,32.58733287211373L44.25,35.68828438971109L44.5,33.595539756141115L44.75,17.61781630567033L45,23.06415914884002L45.25000000000001,28.743836828415365L45.5,42.35106347501959L45.75,23.74855477710974L46,15.868280866347238L46.25,26.439779237073154L46.5,30.603732018765715L46.75,50.9159388954025L47,16.952214678997688L47.25,19.480495779241057L47.5,23.66688073984284L47.75,0.5123403071055884L48,2.1039726097597478L48.25,13.21629197751763L48.49999999999999,-24.941002833712375L48.75,13.139366856494568L49,10.225376171636013L49.25,4.4056897736196L49.5,5.20084425866232L49.75,18.060665780661246L50,17.481634275729114L50.25,8.294313385058244L50.5,9.723419034859793L50.75,8.75597054424758L51.00000000000001,16.317027608530964L51.25,30.283284751560632L51.5,39.43833156108041L51.74999999999999,26.8188153327257L52,29.61919714336099L52.25,8.085671448654939L52.5,22.345342650381934L52.75,22.54385109804167L53,27.226424972586408L53.25,36.88980758212362L53.5,7.687980262571672L53.75,-4.990864160775665L54,4.060713615147547L54.25000000000001,3.0177915927539063L54.5,1.7388110182744312L54.75,-1.714130940711777L54.99999999999999,9.589956468735336L55.25,24.29943108542413L55.5,54.03430692345095L55.75,35.88009864483393L56,34.576424080495734L56.25,8.380688356378487L56.5,-0.8810923216627975L56.75,19.355850006070494L57,16.58023910418755L57.25,40.57446945128206L57.50000000000001,38.49063898176371L57.75,46.2322267753904L58,34.69735417741686L58.24999999999999,35.16530225661289L58.5,26.803740552983037L58.75,33.2412016860175L59,29.897872587334774L59.25,20.40362134394548L59.5,36.10432350725435L59.75,26.598046374860417L60,5.165170522059791L60.25,10.02752409668316L60.5,9.484919100750778L60.75000000000001,20.82393320585252L61,3.9404582511482253L61.25,-4.0272716801704265L61.49999999999999,-10.396305965662487L61.75,8.348037445179314L62,9.547413851995291L62.25,27.18295830061774L62.5,38.934052667443396L62.75,27.751724045330953L63,17.027609261386402L63.25,26.109655296313434L63.5,39.892912750745424L63.75,33.89174257435676L64,17.779070584286934L64.25,5.4627947777368755L64.5,11.821360490909713L64.75,33.32730967731763L65,45.66233333904439L65.25,50.6201649722987L65.5,58.249863812379054L65.75,62.54464618507147L66,57.825184075890704L66.25,46.71574376157444L66.5,38.15745999494109L66.75,50.57893816279715L67,43.89640464572517L67.25,40.366735177368376L67.5,48.27071179377862L67.75,51.36351693527597L68,47.53378653242208L68.25,57.801784243468546L68.5,44.95932410137899L68.75,49.554742435477465L69,42.89054046861069L69.25,63.75157752111597L69.5,63.20923419679229L69.75,59.06637818744794L70,56.51403720655649L70.25,58.58751422253417L70.5,56.41210662973225L70.75,59.54441706927001L71,75.93412558590202L71.25,71.89848086250718L71.5,78.17395834731795L71.75,79.64759997889044L72,78.98032589970812L72.25,66.28293818763166L72.5,69.61997113147142L72.75,69.66106838495789L73,84.15312118437642L73.25,93.3311218764787L73.5,83.56266810574563L73.75,84.61640856710136L74,87.96283124713338L74.25,81.49372238414429L74.5,85.66421400604811L74.75,91.97077005961437L75,84.74763022577106L75.25,97.05133940407835L75.5,97.88684574144604L75.75,89.51853494273139L76,84.23082139746255L76.25,89.17570101413672L76.5,87.50494033809628L76.75,97.28515795896129L77,88.15892938790526L77.25,95.19855689218328L77.50000000000001,100.22931912269601L77.75,114.74450411832181L78,116.85545872709659L78.24999999999999,104.37817538019918L78.5,110.86113374374452L78.75,112.24912996853674L78.99999999999999,121.453551251284L79.25,111.66532920912407L79.5,103.51170439192951L79.75,109.4144621849217L80,114.65557819367395L80.25,110.1871548996028L80.5,116.01886594925266L80.75,118.9744060792562L81,113.32856073129395L81.25,109.71915983050002L81.5,98.69931803676843L81.75,101.98068542401012L82,113.46725004784277L82.25,109.19465838594444L82.5,115.23307940198903L82.75,113.86388779978307L83,115.34392065187508L83.25000000000001,116.46182393856971L83.5,125.65141150054215L83.75,128.9866079133563L84.00000000000001,133.34112529209133L84.25,128.69374749810027L84.5,122.21601840903675L84.74999999999999,125.47103322178313L85,128.10338663635767L85.25,127.88468854970604L85.49999999999999,129.03199171233297L85.75,129.95511488442492L86,133.09668883676255L86.25,129.64389968511418L86.5,123.79278251685871L86.75,120.99030472333136L87,122.76091657575907L87.25,129.32965251503552L87.5,129.74123366295197L87.75,134.1624012924367L88,129.4736462515871L88.25,128.60859688613496L88.5,125.4486444661638L88.75,123.99090874212706L89,125.9423247099979L89.25,128.39664215571065L89.5,123.55735600824981L89.75000000000001,122.49674470922844L90,122.48434656283158L90.25,127.12818267397621L90.50000000000001,127.70947344970229L90.75,124.54979069951092L91,127.44134852045525L91.24999999999999,132.44510394386697L91.5,127.10819958479553L91.75,127.72367390889733L92,123.79488136509345L92.25,122.0176282374419L92.5,120.45913892875257L92.75,115.67433945669814L93,123.9213562985306L93.25,118.33586914817764L93.5,115.29061940201285L93.75,126.26088083717127L94,120.66981636444467L94.25,115.24046753422263L94.5,119.2844844733229L94.75,130.56475266265178L95,134.35389304427687L95.25,132.3243017689489L95.5,129.5956694262884L95.75,128.16922788486852L96,135.59123854239368L96.25000000000001,134.79699522097658L96.5,127.09247808758269L96.75,130.2110233134261L96.99999999999999,133.20149185416486L97.25,133.02698880527845L97.5,118.64429965472875L97.74999999999999,123.84179648671544L98,126.44688643364508L98.25,136.82497997292916L98.5,130.24583287562353L98.75,129.04071267957744L99,133.61643559445096L99.25,134.80042855764918L99.5,130.4822674164702L99.75,131.4704521399456L100,133.5755328119825L100.25,130.53494491861446L100.5,130.2061539412708L100.75,129.04932811585093L101,130.13788439468755L101.25,130.5835343935264L101.5,133.45933061866995L101.75,131.35688521481973L102.00000000000001,134.92889419804467L102.25,133.22371034390005L102.5,136.87369341393077L102.75000000000001,145.2722493652886L103,136.29182989464516L103.25,131.98113402763792L103.49999999999999,131.9942119501419L103.75,131.33755923007254L104,135.31140242036773L104.24999999999999,141.3659531872467L104.5,140.8118234356838L104.75,139.75901258074825L105,136.73305997103603L105.25,130.7124502709517L105.5,128.83803038901144L105.75,137.6239923463626L106,139.355210913799L106.25,139.68075680747538L106.5,136.85061558096552L106.75,137.84168740913637L107,131.50574245138188L107.25,129.98482580631904L107.5,135.12960712701042L107.75,144.11429089262066L108,143.0843708154796L108.25,145.63336098416082L108.50000000000001,143.77443308168708L108.75,144.62754917065735L109,146.2058938339577L109.25000000000001,145.48595399828113L109.5,147.94217728279844L109.75,143.75682311874317L109.99999999999999,148.76751381728067L110.25,150.0312896484515L110.5,148.63227161850816L110.75,151.98086322796118L111,148.11234485378924L111.25,145.242439496146L111.5,149.33544903653444L111.75,147.900657925949L112,141.1194315635833L112.25,135.66496112448016L112.5,133.25016914905333L112.75,129.55662249188356L113,133.11557660894036L113.25,135.89556199548505L113.5,140.5968055620066L113.75,141.90891729360453L114,143.93982656736551L114.25,145.61219188336162L114.5,144.64070132233877L114.75,145.4416079055757L115.00000000000001,141.84160210677925L115.25,146.97102810137835L115.5,149.5368041268589L115.74999999999999,140.1387870354415L116,146.9877725785749L116.25,145.4865214712884L116.49999999999999,145.84016187314984L116.75,141.95629674191156L117,148.1245447039299L117.25,148.06491793233312L117.5,147.58587401532026L117.75,149.947071513074L118,147.03484491539243L118.25,151.11211334088787L118.5,146.5327654664875L118.75,147.60107254893546L119,142.5806692277052L119.25,145.0404845774963L119.5,148.53684462909666L119.75,153.14853024763724L120,154.14793276955402L120.25,152.2099929342849L120.5,144.33258352022466L120.75000000000001,142.98958529635925L121,146.0424536721189L121.25,141.84770759679552L121.50000000000001,147.21458670737948L121.75,148.2449684614496L122,145.3502802177999L122.24999999999999,144.32874564278526L122.5,151.15465206274433L122.75,153.45962177734998L122.99999999999999,153.30231162918463L123.25,154.25650583711976L123.5,148.4498713036838L123.75,144.1240738404073L124,146.96385235223835L124.25,139.2919307388882L124.5,145.73750553755085L124.75,147.02768163419634L125,149.40638657730938L125.25,149.3030310888417L125.5,140.8668434869842L125.75,136.78407732555846L126,140.34096628770973L126.25,138.53358326561698L126.5,147.00965289795866L126.75,142.37887809589188L127,134.44190815636324L127.25000000000001,135.69235541551595L127.5,136.37455784159474L127.75,141.35304980403725L128,141.91330979422654L128.25,138.2336022108153L128.5,131.93395767506095L128.75,132.25773569283564L129,128.9636962990225L129.25,137.48545619926418L129.5,138.00733569313027L129.75,135.23483042944832L130,141.14308471498506L130.25,142.80390086383196L130.5,146.92364723648967L130.75,146.01357621649709L131,145.80092368145668L131.25,144.39947653782298L131.5,136.11313410384614L131.75,137.39692159364517L132,134.00608905873634L132.25,138.90949415001435L132.5,137.43419886529344L132.75,140.96775545020836L133,139.85627226833466L133.25,141.33143446924666L133.5,141.08308242608535L133.75,142.49910743345475L134,140.6511858740031L134.25,139.2903652452576L134.5,138.62747181235636L134.75,140.2684239036573L135,138.9518937281807L135.25,143.00463083656865L135.5,143.03422905964993L135.75,143.25140310504045L136,141.2275805702488L136.25,144.35451330924116L136.5,137.8246403903807L136.75,142.50733849829703L137,144.15137216305496L137.25,143.05777813308893L137.5,142.41591722953393L137.75,139.42860068790955L138,135.37550138183144L138.25,138.60744884062433L138.5,144.42347942858115L138.75,142.49066399178412L139,146.96101607466642L139.25,146.75475317787073L139.5,147.7822588675277L139.75,151.39090797859765L140,149.59874194597208L140.25,148.17453199467064L140.5,146.13984209999046L140.75,144.15724341891965L141,140.86350902411994L141.25,141.69892524377698L141.5,142.35232973911081L141.75,144.16514626036715L142,147.17179610862712L142.25,144.25382118146248L142.5,146.09902392657972L142.75,136.23356364666847L143,141.07668108045712L143.25,138.160049658813L143.5,139.44204213329033L143.75,137.42130349144068L144,141.41974599002634L144.25,139.4686050504774L144.5,142.91869701288127L144.75,149.4208352407335L145,144.6456515058191L145.25,146.08103599931664L145.5,145.8364199407053L145.75,148.61475225332293L146,148.16024253393957L146.25,144.48708357985265L146.5,146.34748623316753L146.75,149.30366481271548L147,149.80460416233834L147.25,143.85986414128323L147.5,142.80468687161076L147.75,142.79827433076065L148,143.65556368776097L148.25,145.285795793223L148.5,146.00016949889317L148.75,139.60249427746092L149,142.0478180475455L149.25,144.00300663078355L149.5,141.52180780588307L149.75,145.37645996581745L150,136.370531079995L150.25,141.3918304112518L150.5,140.25810246072L150.74999999999997,136.9914466484494L151,137.18860727612818L151.25,141.53325564502464L151.5,140.4831219127106L151.75,144.57836938760641L152,148.2786743374385L152.24999999999997,149.4003983814548L152.5,141.89069498056355L152.75,142.37483084484447L153,149.72074328433183L153.25,148.5993326817197L153.5,150.65009128536238L153.75,151.28797843149576L154,152.80135424588883L154.25,153.1973913807954L154.5,151.30654060240303L154.75,148.39920629300107L155.00000000000003,150.26242187760727L155.25,147.4701979347614L155.5,148.6596831593045L155.75,149.23073049265912L156,147.3005802862571L156.25,148.84726826147593L156.49999999999997,143.8366463966947L156.75,147.90880734052945L157,150.633794186473L157.25,145.18754392343368L157.5,147.69125604715512L157.75,151.30113954595663L157.99999999999997,151.92169677765332L158.25,150.92197870145935L158.5,150.23522130010943L158.75,144.434005495062L159,141.86011840272974L159.25,147.4102380834164L159.5,148.29789255631815L159.75,150.19578751667052L160,148.39329648461168L160.25,146.74397435454264L160.5,149.71150588195167L160.75000000000003,151.72031602383043L161,152.1943045841876L161.25,152.284046529962L161.5,155.25175341719392L161.75,153.18844651035866L162,154.06390656740905L162.25000000000003,151.3963426612503L162.5,151.06200015521168L162.75,149.98087948943845L163,144.65114633074805L163.25,142.15385416248284L163.5,142.43225263217394L163.74999999999997,138.35235920742733L164,141.49837498185386L164.25,144.80554103245746L164.5,149.2430968566164L164.75,150.37569521368093L165,146.21220327119357L165.25,150.16420595268605L165.5,148.53755123070994L165.75,151.31396213363877L166,146.59370679373308L166.25,146.37120518713056L166.50000000000003,149.21562567728077L166.75,149.59623865710088L167,147.91069551563098L167.25,152.34883210811518L167.5,153.67510222049654L167.75,154.93642504206557L168.00000000000003,155.3574448219414L168.25,149.48633245178914L168.5,148.3649701012106L168.75,148.43672542569624L169,148.13532836912626L169.25,146.6384550552282L169.49999999999997,143.81120935007212L169.75,143.05996010457045L170,146.57877219769102L170.25,148.53285755943898L170.5,145.78411031304785L170.75,149.541666717563L170.99999999999997,150.3084898936156L171.25,148.12265325471182L171.5,152.92771274775913L171.75,152.5002771631717L172,157.59934464390113L172.25,160.18298194782955L172.5,156.7911307214321L172.75,153.5787538011047L173,154.1736156852547L173.25,153.06959013411426L173.5,145.24734649023824L173.75000000000003,141.41645757930326L174,148.2658212219289L174.25,147.7580388884511L174.5,143.09877799157897L174.75,146.42860368612168L175,150.12394420935368L175.24999999999997,141.53247549116804L175.5,142.74922620046254L175.75,138.58072973959514L176,144.76575297716977L176.25,147.66873462957375L176.5,142.85904990809502L176.74999999999997,143.80157108611272L177,149.03517130716486L177.25,152.8177790226768L177.5,149.11095492733898L177.75,150.7743570051196L178,153.14839121748625L178.25,151.6137696726101L178.5,155.3854280843125L178.75,156.28031407994743L179,153.78071111362806L179.25,157.07169468753514L179.50000000000003,160.28307095896986L179.75,158.24723995366764L180,154.66615622424527L180.25,156.59736084053978L180.5,152.89199544058283L180.75,150.2925764783186L181.00000000000003,154.64641318702473L181.25,154.64048761914435L181.5,152.86137762143372L181.75,156.5050901163071L182,154.34410644303458L182.25,151.65874696213422L182.49999999999997,152.91315172774645L182.75,153.90763297873568L183,152.1440163882444L183.25,152.66665237139878L183.5,155.27253714198602L183.75,152.48493128813146L184,152.34358579594L184.25,152.74470220413667L184.5,149.4288273636909L184.75,153.2550373227047L185,150.18444999956967L185.25000000000003,148.55810766758847L185.5,144.90744872098563L185.75,148.48719148956974L186,148.98105438425088L186.25,151.2279108516809L186.5,154.38126386915266L186.75000000000003,154.55261302221587L187,150.83205323355656L187.25,152.1393970148003L187.5,150.07729102946732L187.75,142.07553330527196L188,149.60844858169426L188.24999999999997,148.00252292760135L188.5,144.42301405792188L188.75,148.28888699208548L189,153.8005811182351L189.25,149.73294082131133L189.5,148.20173291472284L189.74999999999997,148.7063271290522L190,150.39099213797616L190.25,151.7698040484514L190.5,154.27249753946816L190.75,152.26470269645108L191,153.10814988147132L191.25,149.21483833510229L191.5,145.67958303442725L191.75,147.78175844441532L192,147.19914301449464L192.25,149.99589419492725L192.50000000000003,151.20937444445676L192.75,153.40433391934943L193,146.54817089044838L193.25,148.97089917224915L193.5,150.07646230913562L193.75,152.24017463559326L193.99999999999997,150.96787835618508L194.25,150.48194647705944L194.5,153.56004566079213L194.75,155.48153555865588L195,155.78135939722557L195.25,152.6201207734265L195.49999999999997,143.52863387050934L195.75,145.58893604943776L196,147.19136160931762L196.25,149.71495543910132L196.5,146.62853123541515L196.75,148.26368127939605L197,149.98483519560597L197.25,154.41966679576936L197.5,153.33623255223375L197.75,152.9873924867134L198,148.84564225370607L198.25000000000003,151.64155620234166L198.5,150.24579778848263L198.75,152.5688536616455L199,155.89994976832213L199.25,153.03133643814172L199.5,152.09007108895926L199.75000000000003,151.17517680737743L200,153.05595816063902L200.25,153.43127542866083L200.5,155.53216875870712L200.75,153.1728121118527L201,155.39029095630534L201.24999999999997,156.6806084676227L201.5,160.83590570074168L201.75,155.98398983666408L202,152.5792999676214L202.25,155.88160552251418L202.5,158.2445414245213L202.75,156.65578673164555L203,154.97512067485158L203.25,158.17454156753405L203.5,157.32494645999063L203.75,146.20240167192333L204.00000000000003,152.76353245225576L204.25,149.41428968060234L204.5,153.47967088668474L204.75,149.3825288401977L205,154.36115020435665L205.25,150.43553965442348L205.50000000000003,155.3772954055844L205.75,157.9334093675521L206,158.73234325719915L206.25,154.58195251269962L206.5,152.6213498078415L206.75,155.57525245125868L206.99999999999997,156.31011705264913L207.25,157.13333673079092L207.5,159.63744537114667L207.75,157.094527547039L208,155.78625922867303L208.25,153.41372153044924L208.49999999999997,147.23770559359303L208.75,155.35851141132142L209,152.4594941237602L209.25,154.03195795013707L209.5,150.7183907226376L209.75,153.6474140760691L210,155.96529402796773L210.25,152.6644562311829L210.5,150.66404636469647L210.75,149.38847047349114L211,149.0611937419194L211.25000000000003,153.08062310868212L211.5,149.19588779521212L211.75,153.49483899541036L212,152.86777665774426L212.25,154.8720593764011L212.5,154.34900737088665L212.74999999999997,150.14574217964258L213,154.44387815894115L213.25,152.98666638434784L213.5,153.2025157747717L213.75,154.996233725829L214,152.42281516250952L214.24999999999997,151.96495491578372L214.5,147.56004858601605L214.75,151.86463008277724L215,153.60195084782308L215.25,155.9772556088678L215.5,157.711812003194L215.75,152.98164716387117L216,154.28402025912794L216.25,154.60968691159044L216.5,154.59131813475742L216.75,156.45458660381587L217.00000000000003,152.79062308782866L217.25,152.31818170893908L217.5,151.90339583286874L217.75,151.21055124280392L218,148.57561685687824L218.25,146.85486514993423L218.50000000000003,152.8188971497292L218.75,148.21906579838247L219,153.23936567290255L219.25,149.92877291987514L219.5,142.83525189966068L219.75,142.82842749681137L219.99999999999997,143.75581447080413L220.25,149.51496709066015L220.5,147.20755174563755L220.75,149.18464342836398L221,150.64281892826472L221.25,153.7036091012775L221.5,154.52272440928334L221.75,154.19527930779128L222,152.83581156787992L222.25,150.30951376313598L222.5,146.3722977532226L222.75000000000003,148.93228399912186L223,153.99345732625127L223.25,152.98360984064618L223.5,152.26092338882376L223.75,154.61902555022132L224,157.2355596871783L224.25000000000003,159.73566389788846L224.5,157.80292740291154L224.75,157.48564241027313L225,154.80411016362197L225.25,154.56622855315976L225.5,156.9488607274515L225.74999999999997,158.4363610601637L226,156.64457083480835L226.25,159.89027373435465L226.5,159.82350025440675L226.75,162.1255663982953L227,159.06703511587332L227.24999999999997,154.31135137703944L227.5,154.34732680217584L227.75,152.40609966534072L228,152.66707555543005L228.25,149.7414491499898L228.5,149.34225286198281L228.75,147.58329558264785L229,150.62139731978323L229.25,151.08912912012104L229.5,152.22256259322742L229.75,147.63568402250954L230.00000000000003,145.21562281203478L230.25,148.26346779834552L230.5,150.53484621626927L230.75,156.2746636330056L231,156.13833327247505L231.25,156.35642388952058L231.49999999999997,157.12153996323912L231.75,155.57973086016597L232,155.53022221233778L232.25,149.72628078961174L232.5,153.43794413866877L232.75,155.3996039338645L232.99999999999997,156.89495634085358L233.25,156.82452819573732L233.5,151.77437180178077L233.75,156.26861282525488L234,153.24725269678052L234.25,154.0636653069823L234.5,157.8266849019628L234.75,156.96609767467785L235,154.01580928280555L235.25,153.4391447773453L235.5,152.3534291627532L235.75000000000003,153.1418799425677L236,150.99927076491807L236.25,151.94049514607445L236.5,151.42533138558778L236.75,145.83589172660615L237,148.3840397216835L237.25000000000003,153.38928647148362L237.5,152.84291849518468L237.75,148.58667459081403L238,142.83951063548002L238.25,149.22945768591447L238.5,152.04800363554568L238.74999999999997,155.14468017522898L239,149.51408439857408L239.25,150.00237474828546L239.5,151.05337883227816L239.75,147.74933880881716L240,149.9327724912738L240.25,153.68789645069688L240.5,150.03310660541368L240.75,149.67184595279085L241,150.77691074219658L241.25,153.41254492605117L241.50000000000003,148.50170439881714L241.75,146.15254702410678L242,147.5910784298673L242.25,152.69779597289332L242.5,152.25682875255924L242.75,152.6326638345332L243.00000000000003,151.07306175337698L243.25,154.1889431927987L243.5,152.56029384460376L243.75,155.39562059120135L244,154.0101361791837L244.25,149.3226483337411L244.49999999999997,144.04351544016572L244.75,141.02852431714916L245,140.44849187402158L245.25,143.48721143961882L245.5,143.73602352158787L245.75,145.22946986526188L245.99999999999997,145.98317895513736L246.25,148.959821205429L246.5,148.22931212251888L246.75,149.4870000962347L247,152.17012128932856L247.25,147.51087451996554L247.5,147.31465872738053L247.75,147.47184313503874L248,149.33511584501252L248.25,151.75053150753646L248.5,147.78627852976604L248.75000000000003,152.74421681789727L249,157.64332351979516L249.25,152.76792007623254L249.5,152.40951433542256L249.75,149.26886066653063L250,150.7646242828631L250.24999999999997,149.6225934377192L250.5,154.3209799498843L250.75,149.46924831691547L251,147.51864584022658L251.25,148.1923663282428L251.5,148.33622407500152L251.74999999999997,149.2485238686256L252,146.6245558405947L252.25,150.1350737499216L252.5,148.99343874178442L252.75,152.6496680545138L253,153.47880388700924L253.25,153.23328437052544L253.5,151.49202842896605L253.75,148.54944685728606L254,149.53986565846955L254.25,152.71275616037101L254.50000000000003,154.14787254540474L254.75,152.24598442201824L255,147.9608042877019L255.25,151.79397319800262L255.5,151.58450254825712L255.75,152.0975644490796L256,153.3540877124674L256.25,157.85145429895363L256.5,152.99901147758587L256.75,152.21235962753866L257,148.099693735711L257.25,152.20456761535343L257.5,154.7763372247398L257.75,155.43950651397188L258,157.85008316622105L258.25,156.14254927666542L258.5,156.38423790950512L258.75,158.61000522624812L259,161.17217061113135L259.25,161.66411550754796L259.5,161.58985161730342L259.75,158.6442041235091L260,160.8908214630835L260.25,158.25547205977557L260.5,152.41047988478095L260.75,150.3470276960358L261,152.8044087550218L261.25,153.77241194612833L261.5,157.42099712113767L261.75,158.64969202967623L262,159.02949485635045L262.25,158.90092084480494L262.5,158.83091012839378L262.75,160.17234169763665L263,160.2909643689136L263.25,160.8767474197948L263.5,162.21483750166124L263.75,160.7536211670734L264,159.82648758061515L264.25,157.29105703811518L264.5,159.1553214437604L264.75,158.33346093774875L265,160.10312557070083L265.25,160.0434973230876L265.5,159.90085568373902L265.75,157.63049709605477L266,158.31306566282493L266.25,162.63856307755538L266.5,159.31868449900924L266.75,158.73884639772402L267,158.73027257302977L267.25,156.6846864790494L267.5,152.55737662538536L267.75,156.8450450274824L268,157.18948796034726L268.25,158.5783141770415L268.5,157.81325904836967L268.75,154.91474763737548L269,156.67606686067438L269.25,155.27573854830976L269.5,153.89196315868963L269.75,154.3927993742482L270,153.08998095002906L270.25,150.6987297555236L270.5,149.69414610984492L270.75,152.88855707241638L271,152.12403228040662L271.25,148.73290640208796L271.5,152.4863781338553L271.75,153.87686853044949L272,151.1438129848265L272.25,147.77308582302075L272.5,150.1976967277297L272.75,151.0455547266504L273,147.37185626586086L273.25,149.3416460674592L273.5,152.35543516804307L273.75,155.0645295353504L274,151.7723113758428L274.25,152.80347608306388L274.5,150.90491149492092L274.75,151.33572481672184" style="fill: none;" fill="none"></path></g></g></g></g><g opacity="0.2"><g><g><g><path stroke="rgb(255, 112, 67)" stroke-width="2px" d="M27.75,-81.97884845733644L28,97.12009016672769L28.25,101.8250436782837L28.5,105.49150927861531L28.750000000000004,118.0964647134145L29,128.5072781244914L29.25,139.2070964972178L29.5,144.6776815255483L29.75,45.83394749959309L30,119.91277527809143L30.25,131.54828683535257L30.5,129.38112473487854L30.749999999999996,132.66107034683228L31,118.33294932047527L31.25,128.07308141390484L31.5,123.51009368896483L31.75,124.13799818356831L32,119.00205047925314L32.25,126.64832671483359L32.5,78.29074827829996L32.75,94.6386030515035L33,101.7877106666565L33.25,114.67364835739134L33.5,97.83914216359456L33.75,97.06831534703572L34,97.28781207402547L34.25,73.25446780522664L34.5,17.2965596516927L34.75,24.932843844095867L35,85.66019662221272L35.25,79.11179320017496L35.5,88.83120505015056L35.75,35.22351360321044L36,71.64981412887573L36.25,43.53754997253419L36.5,54.30864429473877L36.75,59.65315421422323L37,38.59674485524496L37.25,110.61602544784544L37.5,74.91031487782796L37.75,91.68488756815592L38,75.26777776082358L38.25,69.50302060445149L38.5,82.33992179234824L38.75000000000001,53.60792589187623L39,43.89983304341633L39.25,76.6075086593628L39.49999999999999,25.55277252197265L39.75,11.890165646870935L40,23.91820367177328L40.25,82.47762537002563L40.5,83.00492016474405L40.75,-25.972485224405908L41,56.41709200541178L41.25,35.026486078898124L41.5,69.20582882563272L41.75,86.89746570587158L42.00000000000001,87.59333578745523L42.25,52.09284893671671L42.5,58.39516957600912L42.74999999999999,42.00258270899456L43,45.328765551249184L43.25,23.484799385070794L43.5,53.88339869181315L43.75,47.15229701995849L44,12.276155789693194L44.25,40.339711666107185L44.5,30.456422805786126L44.75,-6.34876887003579L45,31.23367341359457L45.25000000000001,37.26335334777832L45.5,62.761903444925956L45.75,-4.155208269755028L46,4.047870000203455L46.25,42.297026793162026L46.5,36.84966119130453L46.75,81.38424921035767L47,-33.99337164560952L47.25,23.272917429606128L47.5,29.946458180745434L47.75,-34.219470342000314L48,4.491421063741046L48.25,29.88477102915446L48.49999999999999,-82.17694505055746L48.75,70.25992139180501L49,5.854390144348151L49.25,-4.3238398234049304L49.5,6.3935759862263914L49.75,37.35039806365966L50,16.613087018330884L50.25,-5.486667950948097L50.5,11.867077509562183L50.75,7.30479780832926L51.00000000000001,27.658613204956055L51.25,51.232670466105155L51.5,53.170901775360115L51.74999999999999,7.889540990193683L52,33.81976985931396L52.25,-24.21461709340414L52.5,43.734849452972405L52.75,22.841613769531257L53,34.25028578440349L53.25,51.384881496429436L53.5,-36.11476071675617L53.75,-24.00913079579673L54,17.638080279032383L54.25000000000001,1.4534085591634158L54.5,-0.17965984344481112L54.75,-6.893543879191089L54.99999999999999,26.546087582906093L55.25,46.363643010457345L55.5,98.63662068049113L55.75,8.648786226908362L56,32.620912233988456L56.25,-30.912915229797363L56.5,-14.773763338724756L56.75,49.71126349767049L57,12.416822751363123L57.25,76.56581497192383L57.50000000000001,35.36489327748617L57.75,57.84460846583049L58,17.395045280456543L58.24999999999999,35.867224375406906L58.5,14.261397997538245L58.75,42.897393385569266L59,24.88287893931071L59.25,6.162244478861493L59.5,59.655376752217606L59.75,12.338630676269531L60,-26.9841432571411L60.25,17.321054458618157L60.5,8.671011606852222L60.75000000000001,37.83245436350506L61,-21.384754180908217L61.49999999999999,-19.949857393900537L61.75,36.464552561442055L62,11.346478462219245L62.25,53.63627497355143L62.5,56.560694217681885L62.75,10.978231112162268L63,0.9414370854695682L63.25,39.73272434870403L63.5,60.567798932393394L63.75,24.88998730977377L64,-6.389937400817871L64.25,-13.011618932088233L64.5,21.359209060668952L64.75,65.58623345692953L65,64.16486883163452L65.25,58.05691242218018L65.5,69.6944120724996L65.75,68.98681974411011L66,50.745990912119545L66.25,30.051583290100105L66.5,25.320034344991047L66.75,69.2111554145813L67,33.87260437011718L67.25,35.07223097483318L67.5,60.12667671839397L67.75,56.00272464752197L68,41.789190928141274L68.25,73.20378081003824L68.5,25.69563388824463L68.75,56.44786993662517L69,32.89423751831054L69.25,95.04313309987386L69.5,62.39571921030681L69.75,52.85209417343139L70,52.685525735219315L70.25,61.697729746500656L70.5,53.148995240529366L70.75,64.24288272857666L71,100.51868836085002L71.25,65.84501377741495L71.5,87.58717457453409L71.75,81.85806242624919L72,77.97941478093465L72.25,47.23685661951701L72.5,74.62552054723103L72.75,69.72271426518758L73,105.89120038350424L73.25,107.09812291463217L73.5,68.909987449646L73.75,86.19701925913492L74,92.98246526718138L74.25,71.79005908966064L74.5,91.9199514389038L74.75,101.43060413996379L75,73.9129204750061L75.25,115.50690317153932L75.5,99.14010524749757L75.75,76.96606874465942L76,76.29925107955933L76.25,96.59302043914794L76.5,84.99879932403564L76.75,111.95548439025879L77,74.46958653132121L77.25,105.75799814860027L77.50000000000001,107.77546246846516L77.75,136.51728161176047L78,120.0218906402588L78.24999999999999,85.66225035985312L78.5,120.5855712890625L78.75,114.33112430572511L78.99999999999999,135.26018317540488L79.25,96.9829961458842L79.5,91.28126716613771L79.75,118.26859887440999L80,122.51725220680235L80.25,103.48451995849611L80.5,124.7664325237274L80.75,123.40771627426146L81,104.85979270935059L81.25,104.3050584793091L81.5,82.16955534617107L81.75,106.90273650487265L82,130.6970969835917L82.25,102.78577089309694L82.5,124.2907109260559L82.75,111.81010039647421L83,117.56396993001302L83.25000000000001,118.13867886861166L83.5,139.4357928435008L83.75,133.98940253257751L84.00000000000001,139.8729013601939L84.25,121.72268080711366L84.5,112.49942477544148L84.74999999999999,130.3535554409027L85,132.05191675821942L85.25,127.5566414197286L85.49999999999999,130.7529464562734L85.75,131.33979964256287L86,137.80904976526895L86.25,124.46471595764162L86.5,115.01610676447551L86.75,116.78658803304037L87,125.41683435440065L87.25,139.1827564239502L87.5,130.35860538482666L87.75,140.79415273666382L88,122.44051369031271L88.25,127.31102283795674L88.5,120.70871583620706L88.75,121.80430515607199L89,128.8694486618042L89.25,132.07811832427979L89.5,116.2984267870585L89.75000000000001,120.90582776069641L90,122.4657493432363L90.25,134.09393684069317L90.50000000000001,128.5814096132914L90.75,119.81026657422385L91,131.77868525187174L91.24999999999999,139.95073707898456L91.5,119.10284304618834L91.75,128.64688539505005L92,117.9016925493876L92.25,119.35174854596455L92.5,118.12140496571858L92.75,108.49714024861655L93,136.2918815612793L93.25,109.95763842264812L93.5,110.7227447827657L93.75,142.71627298990884L94,112.28321965535481L94.25,107.09644428888956L94.5,125.35050988197327L94.75,147.4851549466451L95,140.03760361671448L95.25,129.27991485595703L95.5,125.50272091229758L95.75,126.02956557273863L96,146.72425452868146L96.25000000000001,133.60563023885092L96.5,115.53570238749185L96.75,134.88884115219116L96.99999999999999,137.68719466527304L97.25,132.76523423194885L97.5,97.07026592890422L97.74999999999999,131.63804173469543L98,130.3545213540395L98.25,152.39212028185526L98.5,120.37711222966512L98.75,127.23303238550822L99,140.48001996676126L99.25,136.57641800244647L99.5,124.00502570470174L99.75,132.9527292251587L100,136.73315382003784L100.25,125.97406307856241L100.5,129.71296747525534L100.75,127.31408937772115L101,131.7707188129425L101.25,131.25200939178467L101.5,137.7730249563853L101.75,128.2032171090444L102.00000000000001,140.28690767288208L102.25,130.6659345626831L102.5,142.34866801897684L102.75000000000001,157.87008329232535L103,122.82120068868002L103.25,125.51509022712708L103.49999999999999,132.0138288338979L103.75,130.35258014996845L104,141.27216720581055L104.24999999999999,150.44777933756512L104.5,139.98062880833945L104.75,138.17979629834494L105,132.1941310564677L105.25,121.68153572082521L105.5,126.02640056610106L105.75,150.80293528238934L106,141.9520387649536L106.25,140.1690756479899L106.5,132.60540374120077L106.75,139.3282951513926L107,122.00182501475017L107.25,127.70345083872478L107.5,142.84677910804749L107.75,157.59131654103598L108,141.53949069976807L108.25,149.45684623718262L108.50000000000001,140.98604122797647L108.75,145.90722330411276L109,148.5734108289083L109.25000000000001,144.40604424476624L109.5,151.6265122095744L109.75,137.4787918726603L109.99999999999999,156.28354986508688L110.25,151.9269533952077L110.5,146.53374457359314L110.75,157.0037506421407L111,142.30956729253134L111.25,140.93758145968118L111.5,155.4749633471171L111.75,145.7484712600708L112,130.9475920200348L112.25,127.48325546582541L112.5,129.6279811859131L112.75,124.01630250612895L113,138.45400778452557L113.25,140.06554007530212L113.5,147.64867091178894L113.75,143.87708489100137L114,146.98619047800702L114.25,148.12073985735577L114.5,143.18346548080444L114.75,146.64296778043112L115.00000000000001,136.4415934085846L115.25,154.66516709327698L115.5,153.38546816507974L115.74999999999999,126.04176139831542L116,157.26125089327493L116.25,143.2346448103587L116.49999999999999,146.37062247594199L116.75,136.1304990450541L117,157.3769166469574L117.25,147.97547777493796L117.5,146.86730813980103L117.75,153.4888677597046L118,142.66650501887005L118.25,157.22801597913107L118.5,139.66374365488687L118.75,149.20353317260742L119,135.0500642458598L119.25,148.73020760218301L119.5,153.7813847064972L119.75,160.0660586754481L120,155.6470365524292L120.25,149.30308318138123L120.5,132.5164693991343L120.75000000000001,140.97508796056113L121,150.62175623575845L121.25,135.55558848381042L121.50000000000001,155.2649053732554L121.75,149.79054109255472L122,141.00824785232544L122.24999999999999,142.79644378026327L122.5,161.39351169268292L122.75,156.91707634925842L122.99999999999999,153.06634640693665L123.25,155.68779714902243L123.5,139.73991950352988L123.75,137.63537764549255L124,151.22352011998493L124.25,127.78404831886293L124.5,155.40586773554486L124.75,148.9629457791646L125,152.97444399197894L125.25,149.14799785614014L125.5,128.212562084198L125.75,130.6599280834198L126,145.6762997309367L126.25,135.82250873247781L126.5,159.72375734647113L126.75,135.43271589279175L127,122.5364532470703L127.25000000000001,137.568026304245L127.5,137.3978614807129L127.75,148.82078774770102L128,142.7536997795105L128.25,132.71404083569846L128.5,122.48449087142944L128.75,132.74340271949768L129,124.02263720830283L129.25,150.26809604962668L129.5,138.79015493392944L129.75,131.07607253392538L130,150.0054661432902L130.25,145.29512508710224L130.5,153.1032667954763L130.75,144.64846968650818L131,145.48194487889606L131.25,142.29730582237244L131.5,123.68362045288085L131.75,139.32260282834372L132,128.91984025637308L132.25,146.26460178693137L132.5,135.22125593821207L132.75,146.26809032758075L133,138.18904749552408L133.25,143.54417777061462L133.5,140.71055436134338L133.75,144.62314494450888L134,137.87930353482562L134.25,137.24913430213928L134.5,137.63313166300458L134.75,142.72985204060873L135,136.97709846496582L135.25,149.0837364991506L135.5,143.07862639427185L135.75,143.57716417312622L136,138.1918467680613L136.25,149.0449124177297L136.5,128.02983101209006L136.75,149.5313856601715L137,146.61742266019183L137.25,141.41738708813986L137.5,141.45312587420148L137.75,134.94762587547302L138,129.29585242271423L138.25,143.45537002881366L138.5,153.14752531051636L138.75,139.59144083658853L139,153.66654419898987L139.25,146.44535883267721L139.5,149.32351740201315L139.75,156.80388164520264L140,146.9104928970337L140.25,146.0382170677185L140.5,143.08780725797016L140.75,141.18334539731345L141,135.92290743192035L141.25,142.9520495732625L141.5,143.3324364821116L141.75,146.8843710422516L142,151.68177088101703L142.25,139.87685879071554L142.5,148.86682804425558L142.75,121.43537322680156L143,148.34135723114014L143.25,133.78510252634683L143.5,141.3650308450063L143.75,134.39019552866617L144,147.41740973790485L144.25,136.54189364115396L144.5,148.093834956487L144.75,159.1740425825119L145,137.48287590344745L145.25,148.234112739563L145.5,145.46949585278827L145.75,152.78225072224936L146,147.4784779548645L146.25,138.97734514872232L146.5,149.13809021313986L146.75,153.73793268203735L147,150.55601318677267L147.25,134.94275410970053L147.5,141.22192096710205L147.75,142.78865551948547L148,144.9414977232615L148.25,147.73114395141602L148.5,147.0717300573985L148.75,130.0059814453125L149,145.71580370267233L149.25,146.93578950564066L149.5,137.8000095685323L149.75,151.158438205719L150,122.86163775126138L150.25,148.923779408137L150.5,138.55751053492227L150.74999999999997,132.09146293004355L151,137.48434821764627L151.25,148.05022819836935L151.5,138.9079213142395L151.75,150.72124059995016L152,153.82913176218668L152.24999999999997,151.08298444747925L152.5,130.62613987922668L152.75,143.10103464126587L153,160.73961194356283L153.25,146.9172167778015L153.5,153.72622919082642L153.75,152.2448091506958L154,155.07141796747842L154.25,153.7914470831553L154.5,148.47026443481445L154.75,144.0382048288981L155.00000000000003,153.0572452545166L155.25,143.28186202049255L155.5,150.44391099611917L155.75,150.08730149269104L156,144.40535497665405L156.25,151.1673002243042L156.49999999999997,136.32071359952292L156.75,154.01704875628153L157,154.72127445538837L157.25,137.0181685288747L157.5,151.44682423273724L157.75,156.71596479415894L157.99999999999997,152.85253262519836L158.25,149.4224015871684L158.5,149.2050851980845L158.75,135.73218178749084L159,137.99928776423135L159.25,155.7354176044464L159.5,149.62937426567078L159.75,153.0426299571991L160,145.68955993652344L160.25,144.2699911594391L160.5,154.16280317306519L160.75000000000003,154.73353123664856L161,152.9052874247233L161.25,152.41865944862366L161.5,159.7033137480418L161.75,150.09348615010578L162,155.37709665298462L162.25000000000003,147.39499680201212L162.5,150.56048639615378L162.75,148.3591984907786L163,136.6565465927124L163.25,138.40791591008505L163.5,142.8498503367106L163.74999999999997,132.2325190703074L164,146.21739864349365L164.25,149.76629010836285L164.5,155.89943059285483L164.75,152.07459274927777L165,139.96696535746258L165.25,156.09220997492474L165.5,146.09756914774576L165.75,155.47857848803204L166,139.5133237838745L166.25,146.03745277722678L166.50000000000003,153.4822564125061L166.75,150.16715812683105L167,145.38238080342612L167.25,159.00603699684143L167.5,155.6645073890686L167.75,156.82840927441913L168.00000000000003,155.98897449175516L168.25,140.67966389656067L168.5,146.6829265753428L168.75,148.5443584124247L169,147.68323278427124L169.25,144.3931450843811L169.49999999999997,139.57034079233804L169.75,141.93308623631793L170,151.85699033737183L170.25,151.46398560206094L170.5,141.6609894434611L170.75,155.17800132433572L170.99999999999997,151.45872465769452L171.25,144.8438982963562L171.5,160.1353019873301L171.75,151.8591237862905L172,165.24794586499533L172.25,164.05843790372214L172.5,151.70335388183594L172.75,148.76018842061362L173,155.0659085114797L173.25,151.41355180740356L173.5,133.51398102442425L173.75000000000003,135.6701242129008L174,158.5398666858673L174.25,146.99636538823447L174.5,136.10988664627075L174.75,151.4233422279358L175,155.66695499420166L175.24999999999997,128.6452724138896L175.5,144.5743522644043L175.75,132.32798504829407L176,154.04328783353168L176.25,152.02320710817972L176.5,135.64452282587686L176.74999999999997,145.21535285313925L177,156.8855716387431L177.25,158.49169059594473L177.5,143.55071878433228L177.75,153.26946012179056L178,156.70944253603616L178.25,149.31183735529584L178.5,161.04291570186615L178.75,157.62264307339987L179,150.03130666414899L179.25,162.00817004839578L179.50000000000003,165.10013536612195L179.75,155.1934934457143L180,149.2945306301117L180.25,159.49416776498157L180.5,147.33394734064737L180.75,146.3934480349223L181.00000000000003,161.17716825008392L181.25,154.6315992673238L181.5,150.19271262486777L181.75,161.97065885861713L182,151.10263093312582L182.25,147.6307077407837L182.49999999999997,154.79475887616476L182.75,155.3993548552195L183,149.4985915025075L183.25,153.45060634613037L183.5,159.18136429786682L183.75,148.30352250734964L184,152.1315675576528L184.25,153.3463768164317L184.5,144.45501510302225L184.75,158.9943522612254L185,145.57856901486716L185.25000000000003,146.1185941696167L185.5,139.43146030108133L185.75,153.85680564244586L186,149.72184872627258L186.25,154.59819555282593L186.5,159.11129339536032L186.75000000000003,154.8096367518107L187,145.25121355056763L187.25,154.10041268666586L187.5,146.9841320514679L187.75,130.07289671897888L188,160.90782149632773L188.24999999999997,145.593634446462L188.5,139.0537507534027L188.75,154.0876963933309L189,162.06812230745953L189.25,143.6314803759257L189.5,145.9049210548401L189.74999999999997,149.46321845054626L190,152.9179896513621L190.25,153.83802191416422L190.5,158.02653777599335L190.75,149.25301043192547L191,154.37332065900168L191.25,143.3748710155487L191.5,140.3767000834147L191.75,150.9350215593974L192,146.32521986961365L192.25,154.19102096557617L192.50000000000003,153.029594818751L192.75,156.69677313168845L193,136.26392634709674L193.25,152.60499159495035L193.5,151.73480701446533L193.75,155.48574312527975L193.99999999999997,149.05943393707275L194.25,149.75304865837097L194.5,158.1771944363912L194.75,158.36377040545145L195,156.23109515508017L195.25,147.87826283772787L195.49999999999997,129.89140351613364L195.75,148.6793893178304L196,149.5949999491374L196.25,153.50034618377686L196.5,141.99889492988586L196.75,150.71640634536743L197,152.56656606992087L197.25,161.0719141960144L197.5,151.71108118693036L197.75,152.46413238843283L198,142.63301690419513L198.25000000000003,155.835427125295L198.5,148.1521601676941L198.75,156.05343747138977L199,160.8965939283371L199.25,148.7284164428711L199.5,150.67817306518555L199.75000000000003,149.8028353850047L200,155.8771301905314L200.25,153.99425133069354L200.5,158.68350875377655L200.75,149.63377714157104L201,158.7165092229843L201.24999999999997,158.6160847345988L201.5,167.0688515504201L201.75,148.70611604054767L202,147.4722651640574L202.25,160.8350638548533L202.5,161.78894527753192L202.75,154.27265469233194L203,152.45412158966064L203.25,162.97367290655774L203.5,156.05055379867554L203.75,129.5185844898224L204.00000000000003,162.60522862275442L204.25,144.39042552312216L204.5,159.5777426958084L204.75,143.2368157704671L205,161.8290822505951L205.25,144.5471238295237L205.50000000000003,162.78992903232574L205.75,161.76758031050363L206,159.9307440916697L206.25,148.35636639595032L206.5,149.6804457505544L206.75,160.00610641638437L206.99999999999997,157.4124139547348L207.25,158.36816624800366L207.5,163.3936083316803L207.75,153.28015081087747L208,153.82385675112405L208.25,149.85491498311362L208.49999999999997,137.97368168830872L208.75,167.539720137914L209,148.1109681924184L209.25,156.39065368970236L209.5,145.74803988138837L209.75,158.04094910621643L210,159.4421139558156L210.25,147.71319953600565L210.5,147.66343156496683L210.75,147.47510663668314L211,148.57027864456177L211.25000000000003,159.10976715882617L211.5,143.3687848250071L211.75,159.9432657957077L212,151.92718315124512L212.25,157.87848345438638L212.5,153.56442936261496L212.74999999999997,143.8408443927765L213,160.891082127889L213.25,150.80084872245789L213.5,153.5262898604075L213.75,157.68681065241495L214,148.5626873175303L214.24999999999997,151.27816454569498L214.5,140.95268909136453L214.75,158.321502327919L215,156.20793199539185L215.25,159.54021275043488L215.5,160.31364659468332L215.75,145.88639990488687L216,156.23757990201315L216.25,155.09818689028424L216.5,154.56376496950787L216.75,159.24948930740356L217.00000000000003,147.29467781384787L217.25,151.60951964060465L217.5,151.28121701876321L217.75,150.17128435770672L218,144.6232152779897L218.25,144.27373758951825L218.50000000000003,161.7649451494217L218.75,141.3193187713623L219,160.76981548468274L219.25,144.96288379033405L219.5,132.194970369339L219.75,142.81819089253742L219.99999999999997,145.1468949317932L220.25,158.15369602044424L220.5,143.74642872810364L220.75,152.1502809524536L221,152.83008217811584L221.25,158.2947943607966L221.5,155.75139737129211L221.75,153.7041116555532L222,150.7966099580129L222.25,146.52006705602008L222.5,140.46647373835245L222.75000000000003,152.77226336797077L223,161.5852173169454L223.25,151.46883861223856L223.5,151.1768937110901L223.75,158.15617879231772L224,161.16036089261374L224.25000000000003,163.48582021395364L224.5,154.90382266044617L224.75,157.00971492131552L225,150.7818117936452L225.25,154.20940613746643L225.5,160.52280898888907L225.74999999999997,160.66761155923209L226,153.95688549677533L226.25,164.7588280836741L226.5,159.72334003448486L226.75,165.5786656141281L227,154.47923819224042L227.24999999999997,147.17782576878867L227.5,154.40128993988037L227.75,149.4942589600881L228,153.05853939056396L228.25,145.35300954182944L228.5,148.74345842997232L228.75,144.94485966364542L229,155.17854992548624L229.25,151.79072682062784L229.5,153.92271280288696L229.75,140.75536616643268L230.00000000000003,141.58553099632263L230.25,152.83523527781168L230.5,153.9419138431549L230.75,164.88438975811005L231,155.9338377316793L231.25,156.68355981508893L231.49999999999997,158.26921407381693L231.75,153.26701720555621L232,155.45595924059552L232.25,141.02036865552267L232.5,159.00543916225433L232.75,158.3420936266581L232.99999999999997,159.1379849513372L233.25,156.71888597806296L233.5,144.19913721084595L233.75,163.009974360466L234,148.71521250406903L234.25,155.28828422228494L234.5,163.4712142944336L234.75,155.6752168337504L235,149.59037669499713L235.25,152.57414801915488L235.5,150.72485574086508L235.75000000000003,154.32455611228943L236,147.7853569984436L236.25,153.35233171780905L236.5,150.6525857448578L236.75,137.45173223813373L237,152.20626171429953L237.25000000000003,160.89715659618378L237.5,152.0233665307363L237.75,142.20230873425803L238,134.21876470247906L238.25,158.81437826156616L238.5,156.2758225599925L238.74999999999997,159.7896949847539L239,141.0681907335917L239.25,150.73481027285257L239.5,152.6298849582672L239.75,142.7932787736257L240,153.2079230149587L240.25,159.32058238983154L240.5,144.5509218374888L240.75,149.12995497385663L241,152.43450792630514L241.25,157.36599620183307L241.50000000000003,141.13544360796612L241.75,142.62881096204123L242,149.7488755385081L242.25,160.35787228743234L242.5,151.5953779220581L242.75,153.19641645749408L243.00000000000003,148.73365863164267L243.25,158.86276535193124L243.5,150.1173198223114L243.75,159.64861071109772L244,151.93190956115723L244.25,142.29141656557718L244.49999999999997,136.12481609980267L244.75,136.5060376326243L245,139.57844320933023L245.25,148.04529078801474L245.5,144.10924164454144L245.75,147.46963938077292L245.99999999999997,147.11374258995056L246.25,153.42478458086651L246.5,147.1335484981537L246.75,151.37353205680847L247,156.19480307896933L247.25,140.52200436592102L247.5,147.02033503850302L247.75,147.70761974652606L248,152.13002490997314L248.25,155.37365500132242L248.5,141.83989906311035L248.75000000000003,160.18112425009411L249,164.991983572642L249.25,145.45481491088867L249.5,151.87190572420758L249.75,144.55788016319275L250,153.00826970736188L250.24999999999997,147.90954717000324L250.5,161.36855971813202L250.75,142.19165086746216L251,144.59274212519327L251.25,149.20294706026712L251.5,148.55201069513956L251.74999999999997,150.61697355906168L252,142.68860379854837L252.25,155.40085061391196L252.5,147.28098622957864L252.75,158.13401202360788L253,154.72250763575235L253.25,152.86500509579977L253.5,148.88014451662698L253.75,144.13557449976605L254,151.02549386024475L254.25,157.47209191322327L254.50000000000003,156.30054712295532L254.75,149.39315223693848L255,141.53303408622742L255.25,157.54372656345367L255.5,151.27029657363892L255.75,152.86715730031332L256,155.23887260754904L256.25,164.59750417868295L256.5,145.72034724553427L256.75,151.03238185246786L257,141.93069489796957L257.25,158.36187843481702L257.5,158.63399163881937L257.75,156.43426044782L258,161.46594814459485L258.25,153.58124844233194L258.5,156.74677085876465L258.75,161.9486562013626L259,165.01541868845624L259.25,162.40203285217285L259.5,161.47845578193665L259.75,154.2257328828176L260,164.26074747244516L260.25,154.30244795481363L260.5,143.642991622289L260.75,147.2518494129181L261,156.49048034350076L261.25,155.2244167327881L261.5,162.89387488365173L261.75,160.49273439248404L262,159.5991990963618L262.25,158.70805982748666L262.5,158.72589405377704L262.75,162.18448905150098L263,160.46889837582907L263.25,161.75542199611664L263.5,164.22197262446088L263.75,158.56179666519165L264,158.43578720092773L264.25,153.48791122436523L264.5,161.9517180522283L264.75,157.1006701787313L265,162.75762252012888L265.25,159.95405495166779L265.5,159.6868932247162L265.75,154.22495921452838L266,159.33691851298013L266.25,169.1268091996511L266.5,154.33886663118997L266.75,157.8690892457962L267,158.71741183598834L267.25,153.6163073380788L267.5,146.3664118448893L267.75,163.27654763062796L268,157.7061523596446L268.25,160.66155350208282L268.5,156.66567635536194L268.75,150.5669805208842L269,159.31804569562274L269.25,153.1752460797628L269.5,151.81630007425943L269.75,155.14405369758606L270,151.13575331370035L270.25,147.11185296376547L270.5,148.1872706413269L270.75,157.6801735162735L271,150.97724509239197L271.25,143.64621758460999L271.5,158.11658573150635L271.75,155.9626041253408L272,147.044229666392L272.25,142.71699508031207L272.5,153.8346130847931L272.75,152.31734172503153L273,141.8613085746765L273.25,152.29633076985675L273.5,156.87611881891888L273.75,159.12817108631134L274,146.83398413658142L274.25,154.35022314389548L274.5,148.0570646127065L274.75,151.98194479942322" style="fill: none;" fill="none"></path></g></g></g></g></g></g><g transform="translate(30, 177)" clip-path="url(#clip_1)"><clipPath id="clip_1"><rect width="300" height="23"></rect></clipPath><g><g><line x1="0" y1="0" x2="0" y2="5" style="visibility: inherit;" fill="rgb(0, 0, 0)" stroke="rgb(204, 204, 204)" stroke-width="1px"></line><line x1="25" y1="0" x2="25" y2="5" style="visibility: inherit;" fill="rgb(0, 0, 0)" stroke="rgb(204, 204, 204)" stroke-width="1px"></line><line x1="50" y1="0" x2="50" y2="5" style="visibility: inherit;" fill="rgb(0, 0, 0)" stroke="rgb(204, 204, 204)" stroke-width="1px"></line><line x1="75" y1="0" x2="75" y2="5" style="visibility: inherit;" fill="rgb(0, 0, 0)" stroke="rgb(204, 204, 204)" stroke-width="1px"></line><line x1="100" y1="0" x2="100" y2="5" style="visibility: inherit;" fill="rgb(0, 0, 0)" stroke="rgb(204, 204, 204)" stroke-width="1px"></line><line x1="125" y1="0" x2="125" y2="5" style="visibility: inherit;" fill="rgb(0, 0, 0)" stroke="rgb(204, 204, 204)" stroke-width="1px"></line><line x1="150" y1="0" x2="150" y2="5" style="visibility: inherit;" fill="rgb(0, 0, 0)" stroke="rgb(204, 204, 204)" stroke-width="1px"></line><line x1="175" y1="0" x2="175" y2="5" style="visibility: inherit;" fill="rgb(0, 0, 0)" stroke="rgb(204, 204, 204)" stroke-width="1px"></line><line x1="200" y1="0" x2="200" y2="5" style="visibility: inherit;" fill="rgb(0, 0, 0)" stroke="rgb(204, 204, 204)" stroke-width="1px"></line><line x1="225" y1="0" x2="225" y2="5" style="visibility: inherit;" fill="rgb(0, 0, 0)" stroke="rgb(204, 204, 204)" stroke-width="1px"></line><line x1="250" y1="0" x2="250" y2="5" style="visibility: inherit;" fill="rgb(0, 0, 0)" stroke="rgb(204, 204, 204)" stroke-width="1px"></line><line x1="275" y1="0" x2="275" y2="5" style="visibility: inherit;" fill="rgb(0, 0, 0)" stroke="rgb(204, 204, 204)" stroke-width="1px"></line><line x1="300" y1="0" x2="300" y2="5" style="visibility: inherit;" fill="rgb(0, 0, 0)" stroke="rgb(204, 204, 204)" stroke-width="1px"></line></g><g transform="translate(0, 8)"><text x="0" y="0" dx="0em" dy="0.95em" style="text-anchor: middle; visibility: hidden; font-family: Roboto, sans-serif; font-size: 12px; font-weight: 200;" fill="rgb(33, 33, 33)" stroke="none" stroke-width="1px">-100</text><text x="25" y="0" dx="0em" dy="0.95em" style="text-anchor: middle; visibility: inherit; font-family: Roboto, sans-serif; font-size: 12px; font-weight: 200;" fill="rgb(33, 33, 33)" stroke="none" stroke-width="1px">0</text><text x="50" y="0" dx="0em" dy="0.95em" style="text-anchor: middle; visibility: inherit; font-family: Roboto, sans-serif; font-size: 12px; font-weight: 200;" fill="rgb(33, 33, 33)" stroke="none" stroke-width="1px">100</text><text x="75" y="0" dx="0em" dy="0.95em" style="text-anchor: middle; visibility: inherit; font-family: Roboto, sans-serif; font-size: 12px; font-weight: 200;" fill="rgb(33, 33, 33)" stroke="none" stroke-width="1px">200</text><text x="100" y="0" dx="0em" dy="0.95em" style="text-anchor: middle; visibility: inherit; font-family: Roboto, sans-serif; font-size: 12px; font-weight: 200;" fill="rgb(33, 33, 33)" stroke="none" stroke-width="1px">300</text><text x="125" y="0" dx="0em" dy="0.95em" style="text-anchor: middle; visibility: inherit; font-family: Roboto, sans-serif; font-size: 12px; font-weight: 200;" fill="rgb(33, 33, 33)" stroke="none" stroke-width="1px">400</text><text x="150" y="0" dx="0em" dy="0.95em" style="text-anchor: middle; visibility: inherit; font-family: Roboto, sans-serif; font-size: 12px; font-weight: 200;" fill="rgb(33, 33, 33)" stroke="none" stroke-width="1px">500</text><text x="175" y="0" dx="0em" dy="0.95em" style="text-anchor: middle; visibility: inherit; font-family: Roboto, sans-serif; font-size: 12px; font-weight: 200;" fill="rgb(33, 33, 33)" stroke="none" stroke-width="1px">600</text><text x="200" y="0" dx="0em" dy="0.95em" style="text-anchor: middle; visibility: inherit; font-family: Roboto, sans-serif; font-size: 12px; font-weight: 200;" fill="rgb(33, 33, 33)" stroke="none" stroke-width="1px">700</text><text x="225" y="0" dx="0em" dy="0.95em" style="text-anchor: middle; visibility: inherit; font-family: Roboto, sans-serif; font-size: 12px; font-weight: 200;" fill="rgb(33, 33, 33)" stroke="none" stroke-width="1px">800</text><text x="250" y="0" dx="0em" dy="0.95em" style="text-anchor: middle; visibility: inherit; font-family: Roboto, sans-serif; font-size: 12px; font-weight: 200;" fill="rgb(33, 33, 33)" stroke="none" stroke-width="1px">900</text><text x="275" y="0" dx="0em" dy="0.95em" style="text-anchor: middle; visibility: inherit; font-family: Roboto, sans-serif; font-size: 12px; font-weight: 200;" fill="rgb(33, 33, 33)" stroke="none" stroke-width="1px">1k</text><text x="300" y="0" dx="0em" dy="0.95em" style="text-anchor: middle; visibility: hidden; font-family: Roboto, sans-serif; font-size: 12px; font-weight: 200;" fill="rgb(33, 33, 33)" stroke="none" stroke-width="1px">1.1k</text></g><line x1="0" y1="0" x2="300" y2="0" fill="rgb(0, 0, 0)" stroke="rgb(204, 204, 204)" stroke-width="1px"></line></g></g></g></g></svg>